<?xml version="1.0" encoding="UTF-8" standalone="no"?>
<svg viewBox="0 0 519 277" version="1.1" xmlns="http://www.w3.org/2000/svg" xmlns:xlink="http://www.w3.org/1999/xlink" xmlns:sketch="http://www.bohemiancoding.com/sketch/ns">
    <title>card small</title>
    <description>Created with Sketch (http://www.bohemiancoding.com/sketch)</description>
    <defs></defs>
    <g id="Page-1" stroke="none" stroke-width="1" fill="none" fill-rule="evenodd" sketch:type="MSPage">
        <g id="card-small" sketch:type="MSArtboardGroup">
            <g id="card" sketch:type="MSLayerGroup" transform="translate(20.000000, 15.000000)">
                <path d="M218.120954,130.976097 C218.120954,133.167867 217.370988,134.918807 215.871034,136.228971 C214.37108,137.539136 212.274236,138.194208 209.580441,138.194208 L194.868718,138.194208 L194.868718,112.737968 L207.174404,112.737968 C208.766192,112.737968 210.152864,112.891023 211.33446,113.197136 C212.516057,113.503249 213.468054,113.922618 214.190481,114.455254 C214.912908,114.987891 215.451659,115.615414 215.80675,116.337841 C216.161842,117.060268 216.339385,117.850028 216.339385,118.707144 C216.339385,119.637728 216.155719,120.497893 215.788384,121.287665 C215.421048,122.077437 214.964946,122.726387 214.420065,123.234535 C213.875184,123.742682 213.327249,124.100829 212.776246,124.308986 C214.514968,124.99468 215.840418,125.860967 216.752635,126.907874 C217.664852,127.954781 218.120954,129.310841 218.120954,130.976097 C218.120954,130.976097 218.120954,129.310841 218.120954,130.976097 Z M209.158007,120.06628 C209.158007,118.841827 208.753944,118.027579 207.945805,117.623509 C207.137666,117.21944 205.876499,117.017408 204.162266,117.017408 L202.545997,117.017408 L202.545997,123.115151 L204.198999,123.115151 C205.949966,123.115151 207.214194,122.91312 207.991722,122.50905 C208.769249,122.104981 209.158007,121.290732 209.158007,120.06628 C209.158007,120.06628 209.158007,121.290732 209.158007,120.06628 Z M210.406942,130.663863 C210.406942,128.484337 208.827422,127.394591 205.668335,127.394591 L202.545997,127.394591 L202.545997,133.914768 L205.668335,133.914768 C208.827422,133.914768 210.406942,132.831144 210.406942,130.663863 C210.406942,130.663863 210.406942,132.831144 210.406942,130.663863 Z M240.60099,138.194208 L221.407794,138.194208 L221.407794,112.737968 L240.288756,112.737968 L240.288756,117.84391 L229.085072,117.84391 L229.085072,122.50905 L239.774489,122.50905 L239.774489,127.633358 L229.085072,127.633358 L229.085072,133.0699 L240.60099,133.0699 L240.60099,138.194208 Z M271.750106,138.194208 L264.917696,138.194208 L251.712042,124.015119 L251.712042,138.194208 L244.10823,138.194208 L244.10823,112.737968 L250.922274,112.737968 L264.091195,126.84359 L264.091195,112.737968 L271.750106,112.737968 L271.750106,138.194208 Z M313.679674,138.194208 L306.847264,138.194208 L293.64161,124.015119 L293.64161,138.194208 L286.037798,138.194208 L286.037798,112.737968 L292.851842,112.737968 L306.020762,126.84359 L306.020762,112.737968 L313.679674,112.737968 L313.679674,138.194208 Z M345.673658,125.447721 C345.673658,127.823159 345.125724,130.008774 344.029839,132.004632 C342.933954,134.000489 341.302396,135.586131 339.135115,136.761606 C336.967834,137.93708 334.329179,138.524808 331.219069,138.524808 C328.072227,138.524808 325.409082,137.912591 323.229557,136.688139 C321.050032,135.463686 319.430718,133.853556 318.371566,131.857698 C317.312415,129.861841 316.782847,127.725203 316.782847,125.447721 C316.782847,123.157995 317.309354,121.018297 318.362383,119.028562 C319.415412,117.038826 321.034726,115.434818 323.220374,114.216487 C325.406021,112.998157 328.072227,112.389001 331.219069,112.389001 C333.570018,112.389001 335.666862,112.737965 337.509662,113.435903 C339.352463,114.133841 340.867701,115.079716 342.05542,116.273557 C343.243138,117.467398 344.143097,118.857131 344.755324,120.442797 C345.36755,122.028463 345.673658,123.696754 345.673658,125.447721 C345.673658,125.447721 345.673658,123.696754 345.673658,125.447721 Z M337.849446,125.447721 C337.849446,124.492649 337.708636,123.620239 337.427012,122.830467 C337.145388,122.040696 336.719897,121.355012 336.150527,120.773398 C335.581157,120.191783 334.88629,119.738742 334.065907,119.414262 C333.245524,119.089782 332.296588,118.927545 331.219069,118.927545 C329.161989,118.927545 327.545736,119.527517 326.370262,120.727481 C325.194788,121.927444 324.607059,123.500842 324.607059,125.447721 C324.607059,127.394601 325.197849,128.97106 326.379445,130.177145 C327.561042,131.383231 329.174234,131.986265 331.219069,131.986265 C332.62719,131.986265 333.827135,131.707706 334.818942,131.15058 C335.810748,130.593454 336.563775,129.822061 337.078045,128.836377 C337.592315,127.850692 337.849446,126.721152 337.849446,125.447721 C337.849446,125.447721 337.849446,126.721152 337.849446,125.447721 Z M373.46167,138.194208 L365.215023,138.194208 L363.213054,133.676001 C362.478382,132.02299 361.817188,130.813861 361.229451,130.048579 C360.641713,129.283296 360.06929,128.793522 359.512165,128.579243 C358.955039,128.364964 358.235684,128.257826 357.354078,128.257826 L356.490843,128.257826 L356.490843,138.194208 L348.813565,138.194208 L348.813565,112.737968 L361.872285,112.737968 C363.978343,112.737968 365.704795,113.16652 367.051693,114.023637 C368.398591,114.880754 369.368955,115.921523 369.962814,117.145975 C370.556674,118.370428 370.853599,119.53364 370.853599,120.635647 C370.853599,121.921322 370.605651,123.008008 370.109748,123.895736 C369.613844,124.783464 369.090399,125.429353 368.539395,125.833422 C367.988392,126.237491 367.370052,126.623188 366.684359,126.990524 C367.504742,127.46806 368.181242,128.034361 368.713879,128.689443 C369.246516,129.344525 369.971993,130.669975 370.890332,132.665833 C370.890332,132.665833 369.971993,130.669975 370.890332,132.665833 L373.46167,138.194208 Z M363.029387,120.782581 C363.029387,119.607107 362.64369,118.786736 361.872285,118.321444 C361.10088,117.856152 359.845835,117.623509 358.107112,117.623509 L356.490843,117.623509 L356.490843,123.757986 L358.143846,123.757986 C360.017258,123.757986 361.299853,123.552893 361.991668,123.142701 C362.683484,122.73251 363.029387,121.945811 363.029387,120.782581 C363.029387,120.782581 363.029387,121.945811 363.029387,120.782581 Z M399.964012,138.194208 L391.717366,138.194208 L389.715396,133.676001 C388.980725,132.02299 388.31953,130.813861 387.731793,130.048579 C387.144056,129.283296 386.571633,128.793522 386.014507,128.579243 C385.457381,128.364964 384.738026,128.257826 383.85642,128.257826 L382.993186,128.257826 L382.993186,138.194208 L375.315907,138.194208 L375.315907,112.737968 L388.374627,112.737968 C390.480686,112.737968 392.207138,113.16652 393.554035,114.023637 C394.900933,114.880754 395.871297,115.921523 396.465157,117.145975 C397.059016,118.370428 397.355941,119.53364 397.355941,120.635647 C397.355941,121.921322 397.107993,123.008008 396.61209,123.895736 C396.116187,124.783464 395.592741,125.429353 395.041738,125.833422 C394.490734,126.237491 393.872395,126.623188 393.186701,126.990524 C394.007085,127.46806 394.683584,128.034361 395.216221,128.689443 C395.748858,129.344525 396.474335,130.669975 397.392675,132.665833 C397.392675,132.665833 396.474335,130.669975 397.392675,132.665833 L399.964012,138.194208 Z M389.531729,120.782581 C389.531729,119.607107 389.146032,118.786736 388.374627,118.321444 C387.603222,117.856152 386.348177,117.623509 384.609455,117.623509 L382.993186,117.623509 L382.993186,123.757986 L384.646188,123.757986 C386.519601,123.757986 387.802195,123.552893 388.494011,123.142701 C389.185826,122.73251 389.531729,121.945811 389.531729,120.782581 C389.531729,120.782581 389.531729,121.945811 389.531729,120.782581 Z M409.532261,138.194208 L401.854983,138.194208 L401.854983,112.737968 L409.532261,112.737968 L409.532261,138.194208 Z M432.122498,130.79243 C432.122498,132.384218 431.715374,133.761706 430.901113,134.924936 C430.086852,136.088166 428.951189,136.978942 427.494091,137.59729 C426.036992,138.215639 424.36564,138.524808 422.479983,138.524808 C421.953468,138.524808 421.307579,138.491136 420.542297,138.423792 C419.777014,138.356447 418.760734,138.16972 417.493425,137.863607 C416.226117,137.557494 414.906789,137.104454 413.535402,136.504472 L413.535402,130.259796 C414.821078,131.05569 416.085306,131.716884 417.328125,132.243399 C418.570944,132.769913 419.902516,133.033167 421.322881,133.033167 C422.633045,133.033167 423.480966,132.815829 423.866668,132.381149 C424.252371,131.946468 424.445219,131.539344 424.445219,131.159764 C424.445219,130.47407 424.114622,129.895525 423.453418,129.424111 C422.792213,128.952697 421.831033,128.465984 420.569847,127.963959 C419.173971,127.376222 417.949537,126.736455 416.896508,126.044639 C415.843479,125.352823 414.983314,124.486536 414.315987,123.445752 C413.64866,122.404967 413.315002,121.174411 413.315002,119.754046 C413.315002,118.382659 413.651722,117.14292 414.32517,116.03479 C414.998619,114.926661 416.027144,114.042007 417.410775,113.380803 C418.794406,112.719598 420.484125,112.389001 422.479983,112.389001 C423.900348,112.389001 425.213553,112.52675 426.419639,112.802252 C427.625725,113.077754 428.620577,113.386923 429.404227,113.72977 C430.187877,114.072617 430.726628,114.341992 431.020496,114.537905 L431.020496,120.50708 C429.979712,119.760164 428.81956,119.092848 427.540007,118.505111 C426.260455,117.917374 424.89215,117.623509 423.435051,117.623509 C422.479978,117.623509 421.788173,117.807174 421.359615,118.17451 C420.931056,118.541846 420.71678,118.994887 420.71678,119.533646 C420.71678,120.035671 420.931056,120.470345 421.359615,120.837681 C421.788173,121.205017 422.553444,121.651935 423.655451,122.17845 C425.614575,123.096789 427.181851,123.923282 428.357325,124.657954 C429.5328,125.392625 430.454186,126.240546 431.121513,127.201741 C431.78884,128.162936 432.122498,129.35982 432.122498,130.79243 C432.122498,130.79243 432.122498,129.35982 432.122498,130.79243 Z M432.122498,130.79243" id="BEN-NORRIS-copy" fill="#000000" sketch:type="MSShapeGroup"></path>
                <path d="M195.378194,165.367973 C195.378194,163.971032 195.902039,162.784928 196.949744,161.809625 C197.99745,160.834322 199.279379,160.346678 200.795571,160.346678 C202.286208,160.346678 203.544714,160.830063 204.571124,161.796848 C205.597535,162.763633 206.110733,163.953996 206.110733,165.367973 C206.110733,166.960826 205.369684,168.276826 203.887564,169.316014 C205.540042,170.270022 206.366269,171.675459 206.366269,173.532368 C206.366269,175.00597 205.829648,176.224016 204.756388,177.186542 C203.683129,178.149068 202.328799,178.630324 200.693356,178.630324 C199.074949,178.630324 197.71636,178.138421 196.617547,177.1546 C195.518734,176.170779 194.969336,174.954862 194.969336,173.506814 C194.969336,171.692495 195.812598,170.295576 197.499148,169.316014 C196.741052,168.702723 196.198043,168.09157 195.870102,167.482538 C195.542162,166.873506 195.378194,166.168658 195.378194,165.367973 C195.378194,165.367973 195.378194,166.168658 195.378194,165.367973 Z M203.568143,165.444634 C203.568143,164.669502 203.301962,164.030667 202.769591,163.528109 C202.237221,163.025551 201.562185,162.774276 200.744463,162.774276 C199.918224,162.774276 199.241059,163.021292 198.712947,163.515332 C198.184836,164.009372 197.920784,164.643948 197.920784,165.41908 C197.920784,166.16014 198.199742,166.794716 198.757666,167.322828 C199.315591,167.85094 199.986367,168.114991 200.770017,168.114991 C201.545149,168.114991 202.205278,167.853069 202.750426,167.329216 C203.295573,166.805364 203.568143,166.177176 203.568143,165.444634 C203.568143,165.444634 203.568143,166.177176 203.568143,165.444634 Z M203.785349,173.634583 L203.785349,173.379046 C203.785349,172.561325 203.493615,171.894807 202.910136,171.379472 C202.326658,170.864137 201.570703,170.606474 200.642249,170.606474 C199.73083,170.606474 198.987652,170.866267 198.412692,171.38586 C197.837731,171.905454 197.550256,172.57836 197.550256,173.4046 C197.550256,174.230839 197.84412,174.903745 198.431857,175.423339 C199.019594,175.942933 199.781937,176.202726 200.71891,176.202726 C201.613292,176.202726 202.347953,175.964227 202.922913,175.487223 C203.497873,175.010219 203.785349,174.392678 203.785349,173.634583 C203.785349,173.634583 203.785349,174.392678 203.785349,173.634583 Z M213.853492,160.346678 C215.488935,160.346678 216.841136,161.204847 217.910136,162.92121 C218.979137,164.637572 219.513629,166.816 219.513629,169.456559 C219.513629,172.165261 218.979137,174.367112 217.910136,176.062181 C216.841136,177.757249 215.454864,178.60477 213.751278,178.60477 C212.022138,178.60477 210.633736,177.774284 209.586031,176.113288 C208.538325,174.452292 208.01448,172.25044 208.01448,169.507666 C208.01448,166.798964 208.555361,164.594983 209.637138,162.895656 C210.718915,161.196329 212.124353,160.346678 213.853492,160.346678 C213.853492,160.346678 212.124353,160.346678 213.853492,160.346678 Z M213.879046,162.774276 L213.751278,162.774276 C212.771716,162.774276 211.994466,163.37691 211.419506,164.582198 C210.844546,165.787485 210.55707,167.420773 210.55707,169.482112 C210.55707,171.594559 210.838157,173.251272 211.400341,174.4523 C211.962524,175.653328 212.737644,176.253833 213.725724,176.253833 C214.713804,176.253833 215.493183,175.653328 216.063884,174.4523 C216.634585,173.251272 216.919932,171.620113 216.919932,169.558773 C216.919932,167.488916 216.645233,165.840722 216.095826,164.61414 C215.54642,163.387558 214.8075,162.774276 213.879046,162.774276 Z M225.582624,160.576661 L228.13799,160.576661 L228.13799,178.425894 L225.582624,178.425894 L225.582624,160.576661 Z M236.225724,175.576661 C236.660138,175.576661 237.030663,175.725723 237.337308,176.02385 C237.643954,176.321978 237.797274,176.688243 237.797274,177.122658 C237.797274,177.548554 237.646083,177.906302 237.343697,178.195911 C237.04131,178.485521 236.668656,178.630324 236.225724,178.630324 C235.79131,178.630324 235.425044,178.485521 235.126917,178.195911 C234.828789,177.906302 234.679727,177.548554 234.679727,177.122658 C234.679727,176.688243 234.828789,176.321978 235.126917,176.02385 C235.425044,175.725723 235.79131,175.576661 236.225724,175.576661 C236.225724,175.576661 235.79131,175.576661 236.225724,175.576661 Z M248.402044,160.346678 L249.449744,160.346678 L249.449744,170.363714 L251.44293,170.363714 L251.44293,172.535775 L249.449744,172.535775 L249.449744,178.425894 L246.958262,178.425894 L246.958262,172.535775 L239.407155,172.535775 L239.407155,171.436968 L248.402044,160.346678 Z M246.958262,170.363714 L246.958262,165.189097 L242.831346,170.363714 L246.958262,170.363714 Z M256.911414,168.03833 L257.064736,168.03833 C258.180585,168.03833 259.030236,167.80835 259.613714,167.348382 C260.197192,166.888413 260.488927,166.219766 260.488927,165.342419 C260.488927,164.550252 260.20571,163.907157 259.639267,163.413118 C259.072825,162.919078 258.329647,162.672061 257.40971,162.672061 C256.481256,162.672061 255.450602,162.961667 254.317717,163.540886 L254.317717,161.100511 C255.356905,160.580917 256.489772,160.321124 257.716354,160.321124 C259.360315,160.321124 260.65715,160.751273 261.606899,161.611584 C262.556649,162.471895 263.031516,163.647352 263.031516,165.13799 C263.031516,166.04089 262.848383,166.801104 262.482112,167.418654 C262.115841,168.036204 261.532372,168.566437 260.731687,169.00937 C261.430157,169.281943 261.941225,169.616267 262.264906,170.012351 C262.588588,170.408435 262.839863,170.887561 263.018739,171.449744 C263.197616,172.011928 263.287053,172.608174 263.287053,173.238501 C263.287053,174.797282 262.767467,176.0856 261.728279,177.103492 C260.689092,178.121385 259.37735,178.630324 257.793015,178.630324 C256.438664,178.630324 255.131182,178.302388 253.870528,177.646508 L253.870528,174.861158 C255.216361,175.704434 256.523844,176.126065 257.793015,176.126065 C258.653326,176.126065 259.345398,175.870531 259.86925,175.359455 C260.393103,174.848379 260.655026,174.171214 260.655026,173.327939 C260.655026,172.62095 260.437822,172.00341 260.003407,171.475298 C259.747869,171.177171 259.464652,170.957837 259.153748,170.817291 C258.842843,170.676745 258.172066,170.54259 257.141397,170.414821 L256.911414,170.389267 L256.911414,168.03833 Z M270.672061,175.959966 L277.469336,175.959966 L277.469336,178.425894 L266.174617,178.425894 L266.174617,178.247019 L267.247871,176.982112 C268.925903,174.903737 270.261068,173.140552 271.253407,171.692504 C272.245746,170.244456 272.893099,169.149919 273.195486,168.408859 C273.497872,167.667799 273.649063,166.935268 273.649063,166.211244 C273.649063,165.206128 273.363717,164.399066 272.793015,163.790034 C272.222314,163.181002 271.46423,162.876491 270.518739,162.876491 C269.803233,162.876491 269.098385,163.087306 268.404174,163.508944 C267.709962,163.930581 267.086033,164.524698 266.532368,165.291312 L266.532368,162.045997 C267.920791,160.913112 269.351781,160.346678 270.825383,160.346678 C272.384165,160.346678 273.668223,160.866264 274.677598,161.905451 C275.686973,162.944639 276.191652,164.264898 276.191652,165.866269 C276.191652,166.581775 276.066015,167.346248 275.814736,168.15971 C275.563457,168.973173 275.118402,169.910131 274.479557,170.970613 C273.840712,172.031096 272.754693,173.476993 271.221465,175.308348 C271.221465,175.308348 272.754693,173.476993 271.221465,175.308348 L270.672061,175.959966 Z M281.212947,175.576661 C281.647362,175.576661 282.017886,175.725723 282.324532,176.02385 C282.631177,176.321978 282.784497,176.688243 282.784497,177.122658 C282.784497,177.548554 282.633306,177.906302 282.33092,178.195911 C282.028533,178.485521 281.65588,178.630324 281.212947,178.630324 C280.778533,178.630324 280.412267,178.485521 280.11414,178.195911 C279.816012,177.906302 279.666951,177.548554 279.666951,177.122658 C279.666951,176.688243 279.816012,176.321978 280.11414,176.02385 C280.412267,175.725723 280.778533,175.576661 281.212947,175.576661 C281.212947,175.576661 280.778533,175.576661 281.212947,175.576661 Z M290.744463,160.346678 C292.379906,160.346678 293.732107,161.204847 294.801107,162.92121 C295.870108,164.637572 296.4046,166.816 296.4046,169.456559 C296.4046,172.165261 295.870108,174.367112 294.801107,176.062181 C293.732107,177.757249 292.345835,178.60477 290.642249,178.60477 C288.913109,178.60477 287.524707,177.774284 286.477002,176.113288 C285.429296,174.452292 284.905451,172.25044 284.905451,169.507666 C284.905451,166.798964 285.446332,164.594983 286.528109,162.895656 C287.609886,161.196329 289.015324,160.346678 290.744463,160.346678 C290.744463,160.346678 289.015324,160.346678 290.744463,160.346678 Z M290.770017,162.774276 L290.642249,162.774276 C289.662687,162.774276 288.885437,163.37691 288.310477,164.582198 C287.735517,165.787485 287.448041,167.420773 287.448041,169.482112 C287.448041,171.594559 287.729128,173.251272 288.291312,174.4523 C288.853495,175.653328 289.628615,176.253833 290.616695,176.253833 C291.604775,176.253833 292.384154,175.653328 292.954855,174.4523 C293.525557,173.251272 293.810903,171.620113 293.810903,169.558773 C293.810903,167.488916 293.536204,165.840722 292.986797,164.61414 C292.437391,163.387558 291.698471,162.774276 290.770017,162.774276 Z M302.575809,175.959966 L309.373083,175.959966 L309.373083,178.425894 L298.078365,178.425894 L298.078365,178.247019 L299.151618,176.982112 C300.829651,174.903737 302.164816,173.140552 303.157155,171.692504 C304.149494,170.244456 304.796847,169.149919 305.099233,168.408859 C305.40162,167.667799 305.552811,166.935268 305.552811,166.211244 C305.552811,165.206128 305.267465,164.399066 304.696763,163.790034 C304.126062,163.181002 303.367977,162.876491 302.422487,162.876491 C301.706981,162.876491 301.002133,163.087306 300.307922,163.508944 C299.61371,163.930581 298.989781,164.524698 298.436116,165.291312 L298.436116,162.045997 C299.824538,160.913112 301.255529,160.346678 302.729131,160.346678 C304.287912,160.346678 305.571971,160.866264 306.581346,161.905451 C307.590721,162.944639 308.0954,164.264898 308.0954,165.866269 C308.0954,166.581775 307.969763,167.346248 307.718484,168.15971 C307.467205,168.973173 307.02215,169.910131 306.383305,170.970613 C305.74446,172.031096 304.65844,173.476993 303.125213,175.308348 C303.125213,175.308348 304.65844,173.476993 303.125213,175.308348 L302.575809,175.959966 Z M311.545145,160.576661 L323.0954,160.576661 L315.007666,178.630324 L312.73339,177.672061 L319.275128,163.017036 L311.545145,163.017036 L311.545145,160.576661 Z M331.387564,160.525554 L331.643101,160.346678 L333.189097,162.301533 C331.826228,163.17888 330.69549,164.137133 329.796848,165.17632 C328.898207,166.215508 328.206135,167.437812 327.720613,168.843271 C328.666104,168.357749 329.607321,168.114991 330.544293,168.114991 C331.949751,168.114991 333.133726,168.613283 334.096252,169.609881 C335.058778,170.606479 335.540034,171.828783 335.540034,173.276831 C335.540034,174.767469 335.016189,176.032363 333.968484,177.07155 C332.920778,178.110738 331.647367,178.630324 330.148211,178.630324 C328.470179,178.630324 327.113719,178.040466 326.07879,176.860733 C325.043862,175.680999 324.526405,174.137148 324.526405,172.229131 C324.526405,170.798119 324.792587,169.373516 325.324957,167.955281 C325.857328,166.537046 326.62393,165.208269 327.624787,163.96891 C328.625644,162.729551 329.87989,161.581777 331.387564,160.525554 C331.387564,160.525554 329.87989,161.581777 331.387564,160.525554 Z M327.17121,171.488075 C327.103066,171.888418 327.068995,172.335602 327.068995,172.829642 C327.068995,173.834758 327.36073,174.660985 327.944208,175.308348 C328.527686,175.95571 329.275123,176.279387 330.186542,176.279387 C331.004263,176.279387 331.679299,176.002558 332.21167,175.448893 C332.74404,174.895227 333.010221,174.196767 333.010221,173.353492 C333.010221,172.493181 332.727005,171.796851 332.160562,171.26448 C331.59412,170.73211 330.846683,170.465928 329.918228,170.465928 C329.441224,170.465928 329.008946,170.53833 328.62138,170.683135 C328.233814,170.827939 327.750429,171.09625 327.17121,171.488075 C327.17121,171.488075 327.750429,171.09625 327.17121,171.488075 Z M327.17121,171.488075" id="801.432.0276-copy" fill="#000000" sketch:type="MSShapeGroup"></path>
                <path d="M196,189.250651 L198.36748,189.250651 L198.36748,196.324648 C199.390791,195.577728 200.483463,195.204273 201.645528,195.204273 C203.163151,195.204273 204.403247,195.777483 205.365854,196.923919 C206.32846,198.070355 206.809756,199.542461 206.809756,201.340281 C206.809756,203.268379 206.235236,204.803451 205.086179,205.945545 C203.937122,207.087638 202.40001,207.658676 200.474797,207.658676 C199.702977,207.658676 198.889977,207.576169 198.035772,207.411152 C197.181568,207.246134 196.502984,207.037695 196,206.785826 C196,206.785826 196.502984,207.037695 196,206.785826 L196,189.250651 Z M198.36748,198.591454 L198.36748,205.079208 C199.173988,205.322391 200.002164,205.443981 200.852033,205.443981 C201.90136,205.443981 202.75772,205.070527 203.421138,204.323606 C204.084556,203.576686 204.41626,202.616994 204.41626,201.444502 C204.41626,200.254641 204.106236,199.286264 203.486179,198.539343 C202.866122,197.792423 202.057458,197.418968 201.060163,197.418968 C200.175605,197.418968 199.278053,197.809793 198.36748,198.591454 C198.36748,198.591454 199.278053,197.809793 198.36748,198.591454 Z M219.622764,201.665972 L211.206504,201.665972 C211.267209,202.812408 211.650945,203.724332 212.357724,204.401772 C213.064502,205.079211 213.97723,205.417926 215.095935,205.417926 C216.656918,205.417926 218.09647,204.931566 219.414634,203.958833 L219.414634,206.277749 C218.686175,206.764116 217.964231,207.111515 217.24878,207.319958 C216.53333,207.528401 215.694314,207.632621 214.731707,207.632621 C213.413544,207.632621 212.346888,207.359044 211.531707,206.811881 C210.716527,206.264718 210.063959,205.528665 209.573984,204.6037 C209.084008,203.678734 208.839024,202.608309 208.839024,201.392392 C208.839024,199.568516 209.355008,198.085554 210.386992,196.94346 C211.418975,195.801367 212.758799,195.230328 214.406504,195.230328 C215.993504,195.230328 217.259616,195.786168 218.204878,196.897863 C219.15014,198.009559 219.622764,199.499035 219.622764,201.366337 C219.622764,201.366337 219.622764,199.499035 219.622764,201.366337 L219.622764,201.665972 Z M211.258537,200.245961 L217.281301,200.245961 C217.220596,199.299283 216.938756,198.569744 216.435772,198.057322 C215.932789,197.544899 215.256373,197.288692 214.406504,197.288692 C213.556635,197.288692 212.860707,197.544899 212.318699,198.057322 C211.776691,198.569744 211.423307,199.299283 211.258537,200.245961 C211.258537,200.245961 211.423307,199.299283 211.258537,200.245961 Z M224.552846,195.464825 L224.552846,196.989057 C225.610845,195.816565 226.811917,195.230328 228.156098,195.230328 C228.901901,195.230328 229.595661,195.423569 230.237398,195.810057 C230.879136,196.196545 231.366936,196.72633 231.700813,197.399427 C232.03469,198.072524 232.201626,199.138607 232.201626,200.597707 L232.201626,207.450234 L229.834146,207.450234 L229.834146,200.623762 C229.834146,199.39916 229.647698,198.524147 229.274797,197.998697 C228.901895,197.473247 228.277511,197.210526 227.401626,197.210526 C226.282921,197.210526 225.333337,197.770708 224.552846,198.891089 L224.552846,207.450234 L222.133333,207.450234 L222.133333,195.464825 L224.552846,195.464825 Z M246.99187,193.341324 C248.656919,193.341324 249.962055,194.140343 250.907317,195.738405 L251.362602,193.706097 L253.704065,193.706097 L251.622764,203.37259 C251.501354,203.928438 251.44065,204.293207 251.44065,204.46691 C251.44065,204.710093 251.52737,204.916362 251.700813,205.085722 C251.874256,205.255082 252.08672,205.33976 252.338211,205.33976 C252.9019,205.33976 253.623844,204.977162 254.504065,204.251954 C255.384286,203.526746 256.078046,202.616993 256.585366,201.522668 C257.092685,200.428343 257.346341,199.290609 257.346341,198.109432 C257.346341,195.764449 256.461797,193.808154 254.692683,192.24049 C252.923568,190.672825 250.712208,189.889005 248.058537,189.889005 C244.927898,189.889005 242.337138,190.950745 240.286179,193.074257 C238.23522,195.19777 237.209756,197.883604 237.209756,201.131839 C237.209756,204.293224 238.196196,206.746734 240.169106,208.492444 C242.142015,210.238154 244.910551,211.110995 248.474797,211.110995 C250.573452,211.110995 252.403244,210.754911 253.964228,210.042731 C254.553932,209.764807 255.165308,209.410893 255.798374,208.98098 C256.431439,208.551066 257.021135,207.962658 257.56748,207.215737 L259.908943,207.215737 C259.397287,208.257952 258.538759,209.258897 257.333333,210.218603 C256.127907,211.178309 254.811931,211.881794 253.385366,212.329078 C251.9588,212.776361 250.304616,213 248.422764,213 C244.338191,213 241.123047,211.964315 238.777236,209.892913 C236.431425,207.821511 235.258537,204.98369 235.258537,201.379364 C235.258537,198.886734 235.837393,196.561327 236.995122,194.403075 C238.152851,192.244822 239.683459,190.638098 241.586992,189.582856 C243.490524,188.527613 245.691044,188 248.188618,188 C251.41465,188 254.076954,188.959692 256.17561,190.879104 C258.274265,192.798516 259.323577,195.234656 259.323577,198.187598 C259.323577,199.724864 258.950681,201.216512 258.204878,202.662585 C257.459075,204.108658 256.474803,205.272447 255.252033,206.153986 C254.029262,207.035526 252.767486,207.47629 251.466667,207.47629 C250.590782,207.47629 249.968566,207.317789 249.6,207.000782 C249.231434,206.683775 249.00813,206.121421 248.930081,205.313705 C248.357721,205.991145 247.724665,206.516587 247.030894,206.890047 C246.337124,207.263507 245.6477,207.450234 244.962602,207.450234 C243.618421,207.450234 242.497565,206.894395 241.6,205.782699 C240.702435,204.671004 240.253659,203.29009 240.253659,201.639917 C240.253659,200.276352 240.574523,198.947549 241.21626,197.653465 C241.857998,196.359382 242.703518,195.317183 243.752846,194.526837 C244.802173,193.736491 245.881837,193.341324 246.99187,193.341324 C246.99187,193.341324 245.881837,193.341324 246.99187,193.341324 Z M242.647154,201.848359 C242.647154,202.925314 242.91165,203.813354 243.44065,204.512507 C243.96965,205.211659 244.637394,205.56123 245.443902,205.56123 C246.649329,205.56123 247.735497,204.888143 248.702439,203.541949 C249.669382,202.195755 250.152846,200.680224 250.152846,198.99531 C250.152846,197.866244 249.87751,196.956491 249.326829,196.266024 C248.776149,195.575557 248.049869,195.230328 247.147967,195.230328 C245.97723,195.230328 244.934422,195.905586 244.019512,197.256123 C243.104602,198.60666 242.647154,200.137389 242.647154,201.848359 C242.647154,201.848359 242.647154,200.137389 242.647154,201.848359 Z M262.302439,189.250651 L264.669919,189.250651 L264.669919,196.324648 C265.69323,195.577728 266.785902,195.204273 267.947967,195.204273 C269.46559,195.204273 270.705686,195.777483 271.668293,196.923919 C272.630899,198.070355 273.112195,199.542461 273.112195,201.340281 C273.112195,203.268379 272.537675,204.803451 271.388618,205.945545 C270.239561,207.087638 268.702449,207.658676 266.777236,207.658676 C266.005416,207.658676 265.192416,207.576169 264.338211,207.411152 C263.484007,207.246134 262.805423,207.037695 262.302439,206.785826 C262.302439,206.785826 262.805423,207.037695 262.302439,206.785826 L262.302439,189.250651 Z M264.669919,198.591454 L264.669919,205.079208 C265.476427,205.322391 266.304603,205.443981 267.154472,205.443981 C268.203799,205.443981 269.060159,205.070527 269.723577,204.323606 C270.386995,203.576686 270.718699,202.616994 270.718699,201.444502 C270.718699,200.254641 270.408675,199.286264 269.788618,198.539343 C269.168561,197.792423 268.359897,197.418968 267.362602,197.418968 C266.478044,197.418968 265.580492,197.809793 264.669919,198.591454 C264.669919,198.591454 265.580492,197.809793 264.669919,198.591454 Z M275.141463,206.590412 L275.141463,204.036998 C275.809217,204.505995 276.492137,204.885963 277.190244,205.176915 C277.88835,205.467867 278.475878,205.61334 278.952846,205.61334 C279.447157,205.61334 279.872085,205.49175 280.227642,205.248567 C280.5832,205.005384 280.760976,204.714436 280.760976,204.375717 C280.760976,204.028312 280.646072,203.739536 280.41626,203.50938 C280.186449,203.279224 279.689977,202.947023 278.926829,202.512767 C277.400534,201.661625 276.401086,200.934257 275.928455,200.330641 C275.455824,199.727025 275.219512,199.069137 275.219512,198.356957 C275.219512,197.436334 275.577232,196.685082 276.292683,196.103179 C277.008134,195.521276 277.929534,195.230328 279.056911,195.230328 C280.227648,195.230328 281.42872,195.560358 282.660163,196.220427 L282.660163,198.565399 C281.255278,197.714257 280.106238,197.288692 279.213008,197.288692 C278.753385,197.288692 278.382657,197.386398 278.100813,197.581813 C277.818969,197.777229 277.678049,198.035607 277.678049,198.356957 C277.678049,198.634881 277.805961,198.899773 278.061789,199.151641 C278.317616,199.40351 278.766392,199.707485 279.40813,200.063575 L280.253659,200.545597 C282.248248,201.674663 283.245528,202.925301 283.245528,204.297551 C283.245528,205.27897 282.861792,206.084503 282.094309,206.714174 C281.326825,207.343845 280.340385,207.658676 279.134959,207.658676 C278.423845,207.658676 277.790789,207.582683 277.235772,207.430693 C276.680756,207.278703 275.98266,206.998612 275.141463,206.590412 C275.141463,206.590412 275.98266,206.998612 275.141463,206.590412 Z M288.344715,195.464825 L288.344715,196.989057 C289.402715,195.816565 290.603787,195.230328 291.947967,195.230328 C292.693771,195.230328 293.387531,195.423569 294.029268,195.810057 C294.671006,196.196545 295.158806,196.72633 295.492683,197.399427 C295.82656,198.072524 295.993496,199.138607 295.993496,200.597707 L295.993496,207.450234 L293.626016,207.450234 L293.626016,200.623762 C293.626016,199.39916 293.439568,198.524147 293.066667,197.998697 C292.693765,197.473247 292.069381,197.210526 291.193496,197.210526 C290.074791,197.210526 289.125207,197.770708 288.344715,198.891089 L288.344715,207.450234 L285.925203,207.450234 L285.925203,195.464825 L288.344715,195.464825 Z M300.520325,204.545076 C300.962604,204.545076 301.339836,204.697063 301.652033,205.001042 C301.964229,205.305021 302.120325,205.678476 302.120325,206.121417 C302.120325,206.555674 301.966397,206.920443 301.658537,207.215737 C301.350676,207.511032 300.971276,207.658676 300.520325,207.658676 C300.078047,207.658676 299.705151,207.511032 299.401626,207.215737 C299.098101,206.920443 298.946341,206.555674 298.946341,206.121417 C298.946341,205.678476 299.098101,205.305021 299.401626,205.001042 C299.705151,204.697063 300.078047,204.545076 300.520325,204.545076 C300.520325,204.545076 300.078047,204.545076 300.520325,204.545076 Z M306.360976,190.423137 C306.751221,190.423137 307.085093,190.557754 307.362602,190.826993 C307.64011,191.096232 307.778862,191.426262 307.778862,191.817092 C307.778862,192.199238 307.64011,192.529267 307.362602,192.807191 C307.085093,193.085115 306.751221,193.224075 306.360976,193.224075 C305.996746,193.224075 305.675882,193.082944 305.398374,192.800677 C305.120866,192.518411 304.982114,192.190553 304.982114,191.817092 C304.982114,191.452317 305.120866,191.128801 305.398374,190.846535 C305.675882,190.564268 305.996746,190.423137 306.360976,190.423137 C306.360976,190.423137 305.996746,190.423137 306.360976,190.423137 Z M305.190244,195.464825 L307.557724,195.464825 L307.557724,207.450234 L305.190244,207.450234 L305.190244,195.464825 Z M316.702439,195.43877 C318.523586,195.43877 320.03685,196.027178 321.242276,197.204013 C322.447703,198.380847 323.050407,199.859467 323.050407,201.639917 C323.050407,203.368256 322.439031,204.803451 321.21626,205.945545 C319.99349,207.087638 318.45421,207.658676 316.598374,207.658676 C314.803243,207.658676 313.302987,207.078953 312.097561,205.919489 C310.892135,204.760025 310.289431,203.311803 310.289431,201.574779 C310.289431,199.820384 310.898639,198.359134 312.117073,197.190985 C313.335507,196.022836 314.863947,195.43877 316.702439,195.43877 C316.702439,195.43877 314.863947,195.43877 316.702439,195.43877 Z M316.572358,197.5753 C315.436309,197.5753 314.504069,197.948754 313.77561,198.695675 C313.047151,199.442595 312.682927,200.393602 312.682927,201.548723 C312.682927,202.695159 313.055823,203.630967 313.801626,204.356175 C314.547429,205.081383 315.505685,205.443981 316.676423,205.443981 C317.838488,205.443981 318.79024,205.07704 319.531707,204.343147 C320.273174,203.609255 320.643902,202.669104 320.643902,201.522668 C320.643902,200.384917 320.257998,199.442595 319.486179,198.695675 C318.714359,197.948754 317.743095,197.5753 316.572358,197.5753 Z M316.572358,197.5753" id="ben@bsn.io-copy" fill="#000000" sketch:type="MSShapeGroup"></path>
                <path d="M210.419712,224.144582 L212.925067,224.144582 L207.708789,236.201874 L206.976454,236.201874 L203.468957,227.94469 L200.0257,236.201874 L199.26767,236.201874 L194,224.144582 L196.505355,224.144582 L199.601717,231.332583 L202.608143,224.144582 L204.34262,224.144582 L207.336198,231.332583 L210.419712,224.144582 Z M229.344778,224.144582 L231.850133,224.144582 L226.633856,236.201874 L225.901521,236.201874 L222.394024,227.94469 L218.950767,236.201874 L218.192736,236.201874 L212.925067,224.144582 L215.430422,224.144582 L218.526784,231.332583 L221.53321,224.144582 L223.267686,224.144582 L226.261264,231.332583 L229.344778,224.144582 Z M248.269845,224.144582 L250.7752,224.144582 L245.558922,236.201874 L244.826588,236.201874 L241.319091,227.94469 L237.875833,236.201874 L237.117803,236.201874 L231.850133,224.144582 L234.355488,224.144582 L237.45185,231.332583 L240.458276,224.144582 L242.192753,224.144582 L245.186331,231.332583 L248.269845,224.144582 Z M252.059997,233.123142 C252.496831,233.123142 252.869418,233.273428 253.177771,233.574003 C253.486124,233.874578 253.640298,234.24385 253.640298,234.681831 C253.640298,235.111224 253.488265,235.471908 253.184195,235.763895 C252.880125,236.055883 252.505396,236.201874 252.059997,236.201874 C251.623164,236.201874 251.254859,236.055883 250.955072,235.763895 C250.655284,235.471908 250.505393,235.111224 250.505393,234.681831 C250.505393,234.24385 250.655284,233.874578 250.955072,233.574003 C251.254859,233.273428 251.623164,233.123142 252.059997,233.123142 C252.059997,233.123142 251.623164,233.123142 252.059997,233.123142 Z M256.518245,218 L258.856576,218 L258.856576,224.994775 C259.867288,224.25622 260.946508,223.886947 262.094266,223.886947 C263.593204,223.886947 264.818032,224.453737 265.768786,225.587335 C266.719541,226.720932 267.194912,228.176552 267.194912,229.954239 C267.194912,231.860743 266.627465,233.378624 265.492555,234.507927 C264.357645,235.637231 262.839458,236.201874 260.937948,236.201874 C260.175631,236.201874 259.372641,236.120291 258.528953,235.957121 C257.685265,235.793952 257.015035,235.587846 256.518245,235.338799 C256.518245,235.338799 257.015035,235.587846 256.518245,235.338799 L256.518245,218 Z M258.856576,227.236195 L258.856576,233.651293 C259.653154,233.891753 260.471134,234.011981 261.310539,234.011981 C262.346948,234.011981 263.192764,233.642709 263.848014,232.904153 C264.503264,232.165597 264.830884,231.216653 264.830884,230.057292 C264.830884,228.880756 264.524677,227.923224 263.912254,227.184668 C263.299831,226.446112 262.501123,226.07684 261.516107,226.07684 C260.64244,226.07684 259.755939,226.463288 258.856576,227.236195 C258.856576,227.236195 259.755939,226.463288 258.856576,227.236195 Z M269.199196,235.145573 L269.199196,232.620755 C269.858728,233.084499 270.53324,233.460213 271.222752,233.747906 C271.912263,234.035599 272.492557,234.179443 272.963652,234.179443 C273.451878,234.179443 273.871574,234.059215 274.222754,233.818755 C274.573933,233.578295 274.749521,233.290606 274.749521,232.95568 C274.749521,232.612166 274.636031,232.326624 274.409049,232.099045 C274.182067,231.871467 273.691708,231.542986 272.937956,231.113594 C271.430453,230.271983 270.44331,229.552761 269.976498,228.955905 C269.509686,228.359049 269.276283,227.708528 269.276283,227.004324 C269.276283,226.094011 269.629599,225.351173 270.336241,224.775786 C271.042884,224.2004 271.952939,223.912711 273.066436,223.912711 C274.22276,223.912711 275.409044,224.239044 276.625325,224.891722 L276.625325,227.210432 C275.237737,226.368822 274.102844,225.948023 273.220612,225.948023 C272.766648,225.948023 272.400484,226.044635 272.12211,226.237862 C271.843736,226.431088 271.704551,226.686573 271.704551,227.004324 C271.704551,227.279136 271.830888,227.541061 272.083566,227.790109 C272.336244,228.039157 272.779495,228.339728 273.413331,228.69183 L274.24845,229.168453 C276.218482,230.284875 277.203484,231.521508 277.203484,232.87839 C277.203484,233.848817 276.824472,234.645329 276.066438,235.267949 C275.308404,235.890569 274.334109,236.201874 273.143524,236.201874 C272.441164,236.201874 271.815903,236.126731 271.26772,235.976444 C270.719537,235.826156 270.030035,235.549202 269.199196,235.145573 C269.199196,235.145573 270.030035,235.549202 269.199196,235.145573 Z M282.23989,224.144582 L282.23989,225.651743 C283.284864,224.492382 284.471148,223.912711 285.798779,223.912711 C286.5354,223.912711 287.220618,224.103788 287.854455,224.485947 C288.488291,224.868107 288.970086,225.391958 289.299852,226.057517 C289.629618,226.723076 289.794499,227.77722 289.794499,229.21998 L289.794499,235.995766 L287.456168,235.995766 L287.456168,229.245744 C287.456168,228.034856 287.272015,227.169642 286.903705,226.650077 C286.535394,226.130511 285.918698,225.870732 285.053596,225.870732 C283.948665,225.870732 283.010772,226.424641 282.23989,227.532475 L282.23989,235.995766 L279.850167,235.995766 L279.850167,224.144582 L282.23989,224.144582 Z M294.265594,233.123142 C294.702428,233.123142 295.075015,233.273428 295.383368,233.574003 C295.691721,233.874578 295.845895,234.24385 295.845895,234.681831 C295.845895,235.111224 295.693862,235.471908 295.389792,235.763895 C295.085722,236.055883 294.710993,236.201874 294.265594,236.201874 C293.828761,236.201874 293.460456,236.055883 293.160668,235.763895 C292.860881,235.471908 292.710989,235.111224 292.710989,234.681831 C292.710989,234.24385 292.860881,233.874578 293.160668,233.574003 C293.460456,233.273428 293.828761,233.123142 294.265594,233.123142 C294.265594,233.123142 293.828761,233.123142 294.265594,233.123142 Z M300.034335,219.159355 C300.419776,219.159355 300.749537,219.292465 301.023629,219.558688 C301.29772,219.824912 301.434764,220.151246 301.434764,220.537699 C301.434764,220.915565 301.29772,221.241899 301.023629,221.51671 C300.749537,221.791522 300.419776,221.928925 300.034335,221.928925 C299.67459,221.928925 299.357676,221.789375 299.083585,221.510269 C298.809493,221.231164 298.672449,220.906977 298.672449,220.537699 C298.672449,220.177009 298.809493,219.857116 299.083585,219.578011 C299.357676,219.298906 299.67459,219.159355 300.034335,219.159355 C300.034335,219.159355 299.67459,219.159355 300.034335,219.159355 Z M298.878017,224.144582 L301.216348,224.144582 L301.216348,235.995766 L298.878017,235.995766 L298.878017,224.144582 Z M310.248475,224.118818 C312.0472,224.118818 313.541833,224.700637 314.732418,225.864292 C315.923003,227.027946 316.518286,228.490007 316.518286,230.250518 C316.518286,231.959502 315.914438,233.378624 314.706722,234.507927 C313.499006,235.637231 311.978678,236.201874 310.145691,236.201874 C308.372661,236.201874 306.890877,235.628643 305.700292,234.482164 C304.509707,233.335685 303.914423,231.903681 303.914423,230.18611 C303.914423,228.451362 304.516131,227.006477 305.719564,225.85141 C306.922997,224.696343 308.432618,224.118818 310.248475,224.118818 C310.248475,224.118818 308.432618,224.118818 310.248475,224.118818 Z M310.119995,226.231421 C308.997933,226.231421 308.077171,226.600693 307.35768,227.339249 C306.63819,228.077805 306.27845,229.018161 306.27845,230.160346 C306.27845,231.293943 306.646755,232.219271 307.383376,232.936357 C308.119997,233.653443 309.066455,234.011981 310.222779,234.011981 C311.370537,234.011981 312.310571,233.64915 313.042909,232.923476 C313.775247,232.197802 314.141411,231.26818 314.141411,230.134583 C314.141411,229.009573 313.760258,228.077805 312.997941,227.339249 C312.235624,226.600693 311.276318,226.231421 310.119995,226.231421 Z M310.119995,226.231421" id="www.bsn.io-copy" fill="#000000" sketch:type="MSShapeGroup"></path>
                <path d="M250.801533,0.038330494 L254.276831,17.9897785 L252.079216,17.9897785 L251.005963,12.3935264 L245.40971,12.3935264 L243.058773,17.9897785 L240.669506,17.9897785 L248.552811,0.038330494 L250.801533,0.038330494 Z M246.189097,10.5025554 L250.648211,10.5025554 L249.28109,3.18143101 L246.189097,10.5025554 Z M270.950596,7.10391823 L270.950596,9.42930153 C269.596245,8.39863198 268.41653,7.88330494 267.411414,7.88330494 C266.959964,7.88330494 266.580921,8.00468362 266.274276,8.24744463 C265.96763,8.49020564 265.81431,8.78194037 265.81431,9.12265758 C265.81431,9.34412376 265.910135,9.58049278 266.101789,9.83177172 C266.293442,10.0830507 266.898206,10.5494003 267.916099,11.2308348 C268.933991,11.9122692 269.619675,12.5383276 269.973169,13.109029 C270.326663,13.6797303 270.503407,14.2589408 270.503407,14.846678 C270.503407,15.8773476 270.160566,16.72061 269.474872,17.3764906 C268.789179,18.0323713 267.918234,18.3603066 266.86201,18.3603066 C265.558767,18.3603066 264.200177,17.8449796 262.786201,16.8143101 L263.169506,14.6678024 C264.63459,15.8347588 265.839859,16.4182283 266.785349,16.4182283 C267.228282,16.4182283 267.592418,16.2947201 267.877768,16.0477002 C268.163119,15.8006802 268.305792,15.4897804 268.305792,15.1149915 C268.305792,14.8338998 268.201449,14.546424 267.99276,14.2525554 C267.784071,13.9586868 267.177177,13.4625248 266.172061,12.7640545 C265.166946,12.0655842 264.502557,11.4437847 264.178876,10.8986371 C263.855194,10.3534896 263.693356,9.80409135 263.693356,9.25042589 C263.693356,8.23679221 264.029809,7.42121263 264.702726,6.80366269 C265.375642,6.18611276 266.270011,5.87734242 267.38586,5.87734242 C268.561335,5.87734242 269.749568,6.28619693 270.950596,7.10391823 C270.950596,7.10391823 269.749568,6.28619693 270.950596,7.10391823 Z M277.096252,0.140545145 L275.486371,11.3969336 L280.469336,6.2350937 L283.293015,6.2350937 L277.901193,11.7930153 L283.663543,17.9897785 L280.839864,17.9897785 L275.422487,12.0229983 L274.579216,17.9897785 L272.381601,17.9897785 L274.873083,0.140545145 L277.096252,0.140545145 Z M292.594549,14.923339 L292.275128,17.044293 C291.082618,17.9216398 289.775135,18.3603066 288.352641,18.3603066 C286.870521,18.3603066 285.680158,17.8428501 284.781516,16.8079216 C283.882875,15.7729931 283.43356,14.3952386 283.43356,12.6746167 C283.43356,10.7580824 283.972311,9.14608831 285.04983,7.83858603 C286.127348,6.53108375 287.445478,5.87734242 289.004259,5.87734242 C290.196769,5.87734242 291.189093,6.3351743 291.981261,7.25085179 C292.773428,8.16652928 293.169506,9.34837436 293.169506,10.7964225 C293.169506,11.1541756 293.143953,11.5204411 293.092845,11.89523 L285.758944,11.89523 C285.6908,12.2870548 285.656729,12.6618381 285.656729,13.0195911 C285.656729,14.1013683 285.952723,14.955278 286.544719,15.5813458 C287.136715,16.2074137 287.879893,16.5204429 288.774276,16.5204429 C289.864571,16.5204429 291.137982,15.9880803 292.594549,14.923339 C292.594549,14.923339 291.137982,15.9880803 292.594549,14.923339 Z M286.103918,10.3492334 L291.022998,10.3492334 C291.022998,9.5315121 290.837736,8.88628856 290.467206,8.41354344 C290.096676,7.94079832 289.574961,7.7044293 288.902044,7.7044293 C287.624355,7.7044293 286.691655,8.58602185 286.103918,10.3492334 C286.103918,10.3492334 286.691655,8.58602185 286.103918,10.3492334 Z M301.359455,6.2350937 L301.116695,7.97274276 L298.765758,7.97274276 L297.641397,14.3994889 C297.581771,14.7231703 297.551959,14.9957399 297.551959,15.2172061 C297.551959,15.9838198 297.965073,16.367121 298.791312,16.367121 C299.404603,16.367121 300.120098,16.1328814 300.937819,15.6643952 L300.810051,17.8364566 C299.99233,18.1856917 299.17888,18.3603066 298.369676,18.3603066 C297.40715,18.3603066 296.646936,18.1154198 296.089012,17.6256388 C295.531087,17.1358579 295.252129,16.4906343 295.252129,15.6899489 C295.252129,15.4940365 295.273424,15.2938681 295.316014,15.0894378 L296.542589,7.97274276 L294.472743,7.97274276 L294.741056,6.2350937 L296.874787,6.2350937 L297.321976,3.8330494 L299.519591,3.8330494 L299.110733,6.2350937 L301.359455,6.2350937 Z M310.584327,15.3705281 L310.32879,17.5170358 C309.306639,18.0792192 308.21636,18.3603066 307.057922,18.3603066 C305.482105,18.3603066 304.223599,17.8684036 303.282368,16.8845826 C302.341137,15.9007617 301.870528,14.5868907 301.870528,12.9429302 C301.870528,10.9582524 302.583894,9.28450426 304.010647,7.92163543 C305.437401,6.55876661 307.26234,5.87734242 309.48552,5.87734242 C310.047703,5.87734242 310.720609,5.94548484 311.504259,6.08177172 L311.210392,8.04940375 C310.656726,7.9216348 310.090293,7.85775128 309.511073,7.85775128 C307.969328,7.85775128 306.689528,8.35178382 305.671635,9.33986371 C304.653743,10.3279436 304.144804,11.4821058 304.144804,12.802385 C304.144804,13.9097159 304.43228,14.7806612 305.00724,15.415247 C305.5822,16.0498328 306.367968,16.367121 307.364566,16.367121 C308.420789,16.367121 309.494032,16.0349267 310.584327,15.3705281 C310.584327,15.3705281 309.494032,16.0349267 310.584327,15.3705281 Z M317.126065,0.140545145 L316.001704,8.12606474 L316.052811,8.17717206 C317.37309,6.64394463 318.73168,5.87734242 320.12862,5.87734242 C320.988931,5.87734242 321.659708,6.16907715 322.140971,6.75255537 C322.622234,7.33603358 322.862862,8.12180085 322.862862,9.10988075 C322.862862,9.39097244 322.841568,9.68057773 322.798978,9.97870528 L321.674617,17.9897785 L319.451448,17.9897785 L320.575809,9.85093697 C320.601363,9.64650664 320.61414,9.45485609 320.61414,9.27597956 C320.61414,8.12605899 320.158437,7.55110733 319.247019,7.55110733 C318.58262,7.55110733 317.828795,7.9791269 316.98552,8.83517888 C316.142245,9.69123086 315.707837,10.1959106 315.682283,10.3492334 L314.609029,17.9897785 L312.38586,17.9897785 L314.902896,0.140545145 L317.126065,0.140545145 Z M328.778535,6.2350937 L328.484668,8.30494037 L328.535775,8.3560477 C329.787911,6.82282027 331.086876,6.05621806 332.432709,6.05621806 C333.344127,6.05621806 334.051105,6.3905418 334.553663,7.05919932 C335.056221,7.72785684 335.307496,8.59028433 335.307496,9.64650767 C335.307496,9.94463522 335.281942,10.255535 335.230835,10.5792164 L334.106474,17.9897785 L331.908859,17.9897785 L332.982112,10.5025554 C333.024702,10.2384995 333.045997,9.99574216 333.045997,9.77427598 C333.045997,9.16098501 332.91823,8.69250588 332.662692,8.36882453 C332.407154,8.04514319 332.087736,7.88330494 331.704429,7.88330494 C331.482963,7.88330494 331.233817,7.93867066 330.956985,8.04940375 C330.680152,8.16013684 330.384158,8.33049289 330.068995,8.560477 C329.753831,8.79046112 329.364142,9.13969101 328.899915,9.60817717 C328.435688,10.0766633 328.190801,10.3747864 328.165247,10.5025554 L327.091993,17.9897785 L324.894378,17.9897785 L326.542589,6.2350937 L328.778535,6.2350937 Z M342.960818,5.87734242 C344.281097,5.87734242 345.339434,6.3436921 346.13586,7.27640545 C346.932287,8.2091188 347.330494,9.4505885 347.330494,11.0008518 C347.330494,13.1473702 346.793872,14.9105553 345.720613,16.29046 C344.647354,17.6703647 343.327095,18.3603066 341.759796,18.3603066 C340.379891,18.3603066 339.29813,17.8960864 338.51448,16.967632 C337.730831,16.0391776 337.339012,14.7487306 337.339012,13.0962521 C337.339012,11.043431 337.879892,9.32709378 338.96167,7.9471891 C340.043447,6.56728441 341.376483,5.87734242 342.960818,5.87734242 C342.960818,5.87734242 341.376483,5.87734242 342.960818,5.87734242 Z M342.960818,7.62776831 C342.049399,7.62776831 341.263632,8.19207272 340.603492,9.32069847 C339.943353,10.4493242 339.613288,11.7844897 339.613288,13.3262351 C339.613288,14.2461716 339.811327,14.9957382 340.207411,15.5749574 C340.603494,16.1541767 341.095397,16.4437819 341.683135,16.4437819 C342.611589,16.4437819 343.405874,15.9156782 344.066014,14.8594549 C344.726153,13.8032315 345.056218,12.4744543 345.056218,10.8730835 C345.056218,9.88500358 344.864568,9.09710686 344.481261,8.50936968 C344.097954,7.9216325 343.591145,7.62776831 342.960818,7.62776831 Z M355.584327,6.2350937 L355.341567,7.97274276 L352.99063,7.97274276 L351.866269,14.3994889 C351.806644,14.7231703 351.776831,14.9957399 351.776831,15.2172061 C351.776831,15.9838198 352.189945,16.367121 353.016184,16.367121 C353.629475,16.367121 354.34497,16.1328814 355.162692,15.6643952 L355.034923,17.8364566 C354.217202,18.1856917 353.403752,18.3603066 352.594549,18.3603066 C351.632022,18.3603066 350.871809,18.1154198 350.313884,17.6256388 C349.75596,17.1358579 349.477002,16.4906343 349.477002,15.6899489 C349.477002,15.4940365 349.498296,15.2938681 349.540886,15.0894378 L350.767462,7.97274276 L348.697615,7.97274276 L348.965928,6.2350937 L351.099659,6.2350937 L351.546848,3.8330494 L353.744463,3.8330494 L353.335605,6.2350937 L355.584327,6.2350937 Z M365.626917,14.923339 L365.307496,17.044293 C364.114986,17.9216398 362.807503,18.3603066 361.385009,18.3603066 C359.902889,18.3603066 358.712526,17.8428501 357.813884,16.8079216 C356.915243,15.7729931 356.465928,14.3952386 356.465928,12.6746167 C356.465928,10.7580824 357.004679,9.14608831 358.082198,7.83858603 C359.159716,6.53108375 360.477846,5.87734242 362.036627,5.87734242 C363.229137,5.87734242 364.221461,6.3351743 365.013629,7.25085179 C365.805796,8.16652928 366.201874,9.34837436 366.201874,10.7964225 C366.201874,11.1541756 366.176321,11.5204411 366.125213,11.89523 L358.791312,11.89523 C358.723168,12.2870548 358.689097,12.6618381 358.689097,13.0195911 C358.689097,14.1013683 358.985091,14.955278 359.577087,15.5813458 C360.169083,16.2074137 360.912261,16.5204429 361.806644,16.5204429 C362.896939,16.5204429 364.17035,15.9880803 365.626917,14.923339 C365.626917,14.923339 364.17035,15.9880803 365.626917,14.923339 Z M359.136286,10.3492334 L364.055366,10.3492334 C364.055366,9.5315121 363.870104,8.88628856 363.499574,8.41354344 C363.129044,7.94079832 362.607329,7.7044293 361.934412,7.7044293 C360.656723,7.7044293 359.724023,8.58602185 359.136286,10.3492334 C359.136286,10.3492334 359.724023,8.58602185 359.136286,10.3492334 Z M385.865417,6.2350937 L384.217206,17.9897785 L381.994037,17.9897785 L382.211244,16.6354344 L382.160136,16.5715503 C381.129467,17.6703632 380.073259,18.2197615 378.991482,18.2197615 C377.918223,18.2197615 377.004689,17.7661885 376.250852,16.859029 C375.497015,15.9518694 375.120102,14.8552023 375.120102,13.5689949 C375.120102,11.3372972 375.820691,9.49745187 377.221891,8.04940375 C378.62309,6.60135562 380.580056,5.87734242 383.092845,5.87734242 C384.114997,5.87734242 385.039178,5.99659165 385.865417,6.2350937 C385.865417,6.2350937 385.039178,5.99659165 385.865417,6.2350937 Z M382.46678,14.5911414 L383.437819,7.80664395 C383.199317,7.78960809 382.969337,7.78109029 382.747871,7.78109029 C381.001695,7.78109029 379.672918,8.3368769 378.761499,9.44846678 C377.850081,10.5600567 377.394378,11.8015264 377.394378,13.1729131 C377.394378,14.1184034 377.613712,14.8913939 378.052385,15.491908 C378.491058,16.0924221 379.046845,16.3926746 379.719761,16.3926746 C380.256391,16.3926746 380.844119,16.1264933 381.482964,15.5941227 C382.121809,15.061752 382.449744,14.7274283 382.46678,14.5911414 C382.46678,14.5911414 382.449744,14.7274283 382.46678,14.5911414 Z M391.142249,6.2350937 L390.848382,8.30494037 L390.899489,8.3560477 C392.151625,6.82282027 393.45059,6.05621806 394.796422,6.05621806 C395.707841,6.05621806 396.414819,6.3905418 396.917376,7.05919932 C397.419934,7.72785684 397.67121,8.59028433 397.67121,9.64650767 C397.67121,9.94463522 397.645656,10.255535 397.594549,10.5792164 L396.470187,17.9897785 L394.272572,17.9897785 L395.345826,10.5025554 C395.388416,10.2384995 395.40971,9.99574216 395.40971,9.77427598 C395.40971,9.16098501 395.281943,8.69250588 395.026405,8.36882453 C394.770868,8.04514319 394.45145,7.88330494 394.068143,7.88330494 C393.846677,7.88330494 393.597531,7.93867066 393.320698,8.04940375 C393.043866,8.16013684 392.747872,8.33049289 392.432709,8.560477 C392.117545,8.79046112 391.727856,9.13969101 391.263629,9.60817717 C390.799401,10.0766633 390.554515,10.3747864 390.528961,10.5025554 L389.455707,17.9897785 L387.258092,17.9897785 L388.906303,6.2350937 L391.142249,6.2350937 Z M411.265758,0.140545145 L408.748722,17.9897785 C407.888411,18.2367985 406.88757,18.3603066 405.746167,18.3603066 C403.761489,18.3603066 402.234673,17.8875686 401.165673,16.9420784 C400.096673,15.9965881 399.562181,14.6550342 399.562181,12.9173765 C399.562181,11.2137905 400.256381,9.61457306 401.644804,8.11967632 C403.033227,6.62477958 404.915661,5.87734242 407.292164,5.87734242 L408.224872,5.87734242 L409.042589,0.140545145 L411.265758,0.140545145 Z M406.768313,16.4693356 L407.969336,7.72998296 L407.394378,7.72998296 C405.733382,7.72998296 404.393957,8.23466276 403.376065,9.24403748 C402.358172,10.2534122 401.849233,11.4608107 401.849233,12.8662692 C401.849233,14.0332256 402.185687,14.9339832 402.858603,15.568569 C403.53152,16.2031548 404.494031,16.5204429 405.746167,16.5204429 C406.197617,16.5204429 406.538329,16.5034073 406.768313,16.4693356 C406.768313,16.4693356 406.538329,16.5034073 406.768313,16.4693356 Z M430.81431,0.140545145 L428.297274,17.9897785 C427.436963,18.2367985 426.436122,18.3603066 425.294719,18.3603066 C423.310041,18.3603066 421.783225,17.8875686 420.714225,16.9420784 C419.645225,15.9965881 419.110733,14.6550342 419.110733,12.9173765 C419.110733,11.2137905 419.804933,9.61457306 421.193356,8.11967632 C422.581779,6.62477958 424.464213,5.87734242 426.840716,5.87734242 L427.773424,5.87734242 L428.591141,0.140545145 L430.81431,0.140545145 Z M426.316865,16.4693356 L427.517888,7.72998296 L426.94293,7.72998296 C425.281934,7.72998296 423.942509,8.23466276 422.924617,9.24403748 C421.906724,10.2534122 421.397785,11.4608107 421.397785,12.8662692 C421.397785,14.0332256 421.734239,14.9339832 422.407155,15.568569 C423.080072,16.2031548 424.042583,16.5204429 425.294719,16.5204429 C425.746169,16.5204429 426.086881,16.5034073 426.316865,16.4693356 C426.316865,16.4693356 426.086881,16.5034073 426.316865,16.4693356 Z M440.741908,14.923339 L440.422487,17.044293 C439.229977,17.9216398 437.922494,18.3603066 436.5,18.3603066 C435.01788,18.3603066 433.827517,17.8428501 432.928876,16.8079216 C432.030234,15.7729931 431.58092,14.3952386 431.58092,12.6746167 C431.58092,10.7580824 432.119671,9.14608831 433.197189,7.83858603 C434.274707,6.53108375 435.592837,5.87734242 437.151618,5.87734242 C438.344129,5.87734242 439.336453,6.3351743 440.12862,7.25085179 C440.920788,8.16652928 441.316865,9.34837436 441.316865,10.7964225 C441.316865,11.1541756 441.291312,11.5204411 441.240204,11.89523 L433.906303,11.89523 C433.83816,12.2870548 433.804089,12.6618381 433.804089,13.0195911 C433.804089,14.1013683 434.100082,14.955278 434.692078,15.5813458 C435.284075,16.2074137 436.027253,16.5204429 436.921635,16.5204429 C438.01193,16.5204429 439.285342,15.9880803 440.741908,14.923339 C440.741908,14.923339 439.285342,15.9880803 440.741908,14.923339 Z M434.251278,10.3492334 L439.170358,10.3492334 C439.170358,9.5315121 438.985096,8.88628856 438.614566,8.41354344 C438.244036,7.94079832 437.72232,7.7044293 437.049404,7.7044293 C435.771714,7.7044293 434.839015,8.58602185 434.251278,10.3492334 C434.251278,10.3492334 434.839015,8.58602185 434.251278,10.3492334 Z M450.503407,7.10391823 L450.503407,9.42930153 C449.149056,8.39863198 447.969341,7.88330494 446.964225,7.88330494 C446.512775,7.88330494 446.133732,8.00468362 445.827087,8.24744463 C445.520441,8.49020564 445.367121,8.78194037 445.367121,9.12265758 C445.367121,9.34412376 445.462946,9.58049278 445.6546,9.83177172 C445.846253,10.0830507 446.451017,10.5494003 447.46891,11.2308348 C448.486802,11.9122692 449.172485,12.5383276 449.52598,13.109029 C449.879474,13.6797303 450.056218,14.2589408 450.056218,14.846678 C450.056218,15.8773476 449.713377,16.72061 449.027683,17.3764906 C448.34199,18.0323713 447.471044,18.3603066 446.414821,18.3603066 C445.111578,18.3603066 443.752988,17.8449796 442.339012,16.8143101 L442.722317,14.6678024 C444.187401,15.8347588 445.39267,16.4182283 446.33816,16.4182283 C446.781093,16.4182283 447.145229,16.2947201 447.430579,16.0477002 C447.71593,15.8006802 447.858603,15.4897804 447.858603,15.1149915 C447.858603,14.8338998 447.75426,14.546424 447.545571,14.2525554 C447.336881,13.9586868 446.729988,13.4625248 445.724872,12.7640545 C444.719756,12.0655842 444.055368,11.4437847 443.731687,10.8986371 C443.408005,10.3534896 443.246167,9.80409135 443.246167,9.25042589 C443.246167,8.23679221 443.58262,7.42121263 444.255537,6.80366269 C444.928453,6.18611276 445.822822,5.87734242 446.938671,5.87734242 C448.114146,5.87734242 449.302379,6.28619693 450.503407,7.10391823 C450.503407,7.10391823 449.302379,6.28619693 450.503407,7.10391823 Z M453.79983,2.55536627 C453.79983,2.1976132 453.925467,1.89310177 454.176746,1.64182283 C454.428025,1.39054389 454.728278,1.2649063 455.077513,1.2649063 C455.426748,1.2649063 455.727,1.39054389 455.978279,1.64182283 C456.229558,1.89310177 456.355196,2.1976132 456.355196,2.55536627 C456.355196,2.90460141 456.229558,3.20485394 455.978279,3.45613288 C455.727,3.70741182 455.426748,3.8330494 455.077513,3.8330494 C454.728278,3.8330494 454.428025,3.70741182 454.176746,3.45613288 C453.925467,3.20485394 453.79983,2.90460141 453.79983,2.55536627 C453.79983,2.55536627 453.79983,2.90460141 453.79983,2.55536627 Z M455.780239,6.2350937 L454.132027,17.9897785 L451.908859,17.9897785 L453.55707,6.2350937 L455.780239,6.2350937 Z M467.867121,6.2350937 L467.637138,7.97274276 L465.362862,7.97274276 C465.882456,8.70528475 466.142249,9.48040477 466.142249,10.2981261 C466.142249,11.2350984 465.931433,12.0613252 465.509796,12.7768313 C465.088158,13.4923375 464.572831,13.9970173 463.963799,14.2908859 C463.354767,14.5847545 462.569,14.818994 461.606474,14.9936116 C460.643947,15.1682292 460.034925,15.3428441 459.779387,15.5174617 C459.523849,15.6920792 459.396082,15.8986359 459.396082,16.137138 C459.396082,16.3160145 459.506813,16.4799822 459.728279,16.629046 C459.949746,16.7781098 460.74829,17.0187377 462.123935,17.350937 C463.499581,17.6831362 464.462093,18.1281914 465.011499,18.6861158 C465.560906,19.2440403 465.835605,19.9020405 465.835605,20.6601363 C465.835605,21.6141445 465.384161,22.410559 464.481261,23.0494037 C463.57836,23.6882485 462.432716,24.0076661 461.044293,24.0076661 C459.553655,24.0076661 458.329221,23.7180608 457.370954,23.1388416 C456.412687,22.5596223 455.93356,21.8356091 455.93356,20.9667802 C455.93356,19.8338955 457.062169,19.0247043 459.319421,18.5391823 C457.956552,18.0366244 457.275128,17.3466824 457.275128,16.4693356 C457.275128,16.0178853 457.483814,15.5941246 457.901193,15.1980409 C458.318571,14.8019571 458.885005,14.5017046 459.600511,14.2972743 C458.186535,13.6243578 457.479557,12.5000079 457.479557,10.9241908 C457.479557,9.60391163 457.907577,8.49233842 458.763629,7.58943782 C459.619681,6.68653722 460.648205,6.2350937 461.849233,6.2350937 C461.849233,6.2350937 460.648205,6.2350937 461.849233,6.2350937 L467.867121,6.2350937 Z M461.721465,13.1473595 C462.394382,13.1473595 462.945909,12.8726603 463.376065,12.3232538 C463.80622,11.7738473 464.021295,11.1328827 464.021295,10.4003407 C464.021295,9.71038837 463.823256,9.14608397 463.427172,8.70741056 C463.031088,8.26873716 462.530667,8.04940375 461.925894,8.04940375 C461.329639,8.04940375 460.793018,8.32623233 460.316014,8.87989779 C459.83901,9.43356325 459.600511,10.0638806 459.600511,10.7708688 C459.600511,11.4608212 459.800679,12.0293845 460.201022,12.4765758 C460.601365,12.9237671 461.108174,13.1473595 461.721465,13.1473595 C461.721465,13.1473595 461.108174,13.1473595 461.721465,13.1473595 Z M461.223169,22.3339012 C461.981264,22.3339012 462.586028,22.1976164 463.037479,21.9250426 C463.488929,21.6524688 463.714651,21.29898 463.714651,20.8645656 C463.714651,20.4386691 463.344126,20.0532385 462.603066,19.7082624 C461.862007,19.3632862 461.359456,19.1908007 461.0954,19.1908007 C460.763201,19.1908007 460.173343,19.3675451 459.325809,19.7210392 C458.478275,20.0745333 458.054514,20.4727405 458.054514,20.9156729 C458.054514,21.3500874 458.337731,21.6950583 458.904174,21.9505963 C459.470616,22.2061342 460.243607,22.3339012 461.223169,22.3339012 C461.223169,22.3339012 460.243607,22.3339012 461.223169,22.3339012 Z M472.057922,6.2350937 L471.764055,8.30494037 L471.815162,8.3560477 C473.067298,6.82282027 474.366262,6.05621806 475.712095,6.05621806 C476.623514,6.05621806 477.330492,6.3905418 477.833049,7.05919932 C478.335607,7.72785684 478.586882,8.59028433 478.586882,9.64650767 C478.586882,9.94463522 478.561329,10.255535 478.510221,10.5792164 L477.38586,17.9897785 L475.188245,17.9897785 L476.261499,10.5025554 C476.304089,10.2384995 476.325383,9.99574216 476.325383,9.77427598 C476.325383,9.16098501 476.197616,8.69250588 475.942078,8.36882453 C475.68654,8.04514319 475.367123,7.88330494 474.983816,7.88330494 C474.76235,7.88330494 474.513204,7.93867066 474.236371,8.04940375 C473.959539,8.16013684 473.663545,8.33049289 473.348382,8.560477 C473.033218,8.79046112 472.643529,9.13969101 472.179302,9.60817717 C471.715074,10.0766633 471.470188,10.3747864 471.444634,10.5025554 L470.37138,17.9897785 L468.173765,17.9897785 L469.821976,6.2350937 L472.057922,6.2350937 Z M343.91908,28.7734242 C345.239359,28.7734242 346.297696,29.2397739 347.094123,30.1724872 C347.890549,31.1052006 348.288756,32.3466703 348.288756,33.8969336 C348.288756,36.043452 347.752135,37.8066371 346.678876,39.1865417 C345.605616,40.5664464 344.285357,41.2563884 342.718058,41.2563884 C341.338153,41.2563884 340.256392,40.7921682 339.472743,39.8637138 C338.689093,38.9352594 338.297274,37.6448124 338.297274,35.9923339 C338.297274,33.9395127 338.838155,32.2231756 339.919932,30.8432709 C341.001709,29.4633662 342.334745,28.7734242 343.91908,28.7734242 C343.91908,28.7734242 342.334745,28.7734242 343.91908,28.7734242 Z M343.91908,30.5238501 C343.007662,30.5238501 342.221894,31.0881545 341.561755,32.2167802 C340.901615,33.345406 340.57155,34.6805715 340.57155,36.2223169 C340.57155,37.1422533 340.769589,37.8918199 341.165673,38.4710392 C341.561757,39.0502584 342.05366,39.3398637 342.641397,39.3398637 C343.569851,39.3398637 344.364136,38.81176 345.024276,37.7555366 C345.684416,36.6993133 346.01448,35.3705361 346.01448,33.7691652 C346.01448,32.7810853 345.82283,31.9931886 345.439523,31.4054514 C345.056216,30.8177143 344.549407,30.5238501 343.91908,30.5238501 Z M353.744463,29.1311755 L353.450596,31.2010221 L353.501704,31.2521295 C354.753839,29.718902 356.052804,28.9522998 357.398637,28.9522998 C358.310056,28.9522998 359.017033,29.2866236 359.519591,29.9552811 C360.022149,30.6239386 360.273424,31.4863661 360.273424,32.5425894 C360.273424,32.840717 360.247871,33.1516168 360.196763,33.4752981 L359.072402,40.8858603 L356.874787,40.8858603 L357.948041,33.3986371 C357.990631,33.1345813 358.011925,32.8918239 358.011925,32.6703578 C358.011925,32.0570668 357.884158,31.5885876 357.62862,31.2649063 C357.373082,30.941225 357.053665,30.7793867 356.670358,30.7793867 C356.448892,30.7793867 356.199746,30.8347524 355.922913,30.9454855 C355.64608,31.0562186 355.350087,31.2265747 355.034923,31.4565588 C354.71976,31.6865429 354.33007,32.0357728 353.865843,32.5042589 C353.401616,32.9727451 353.156729,33.2708682 353.131175,33.3986371 L352.057922,40.8858603 L349.860307,40.8858603 L351.508518,29.1311755 L353.744463,29.1311755 Z M371.517036,37.8194208 L371.197615,39.9403748 C370.005105,40.8177216 368.697622,41.2563884 367.275128,41.2563884 C365.793008,41.2563884 364.602645,40.7389319 363.704003,39.7040034 C362.805362,38.6690749 362.356048,37.2913204 362.356048,35.5706985 C362.356048,33.6541642 362.894799,32.0421701 363.972317,30.7346678 C365.049835,29.4271655 366.367965,28.7734242 367.926746,28.7734242 C369.119256,28.7734242 370.11158,29.2312561 370.903748,30.1469336 C371.695915,31.0626111 372.091993,32.2444561 372.091993,33.6925043 C372.091993,34.0502573 372.06644,34.4165228 372.015332,34.7913118 L364.681431,34.7913118 C364.613288,35.1831365 364.579216,35.5579198 364.579216,35.9156729 C364.579216,36.99745 364.87521,37.8513597 365.467206,38.4774276 C366.059202,39.1034955 366.802381,39.4165247 367.696763,39.4165247 C368.787058,39.4165247 370.06047,38.8841621 371.517036,37.8194208 C371.517036,37.8194208 370.06047,38.8841621 371.517036,37.8194208 Z M365.026405,33.2453152 L369.945486,33.2453152 C369.945486,32.4275939 369.760223,31.7823703 369.389693,31.3096252 C369.019163,30.8368801 368.497448,30.6005111 367.824532,30.6005111 C366.546842,30.6005111 365.614143,31.4821036 365.026405,33.2453152 C365.026405,33.2453152 365.614143,31.4821036 365.026405,33.2453152 Z M379.36201,33.9480409 L379.042589,36.1712095 L372.820273,36.1712095 L373.139693,33.9480409 L379.36201,33.9480409 Z M383.833901,29.1311755 L383.527257,31.1754685 C384.898644,29.6933486 386.265751,28.9522998 387.62862,28.9522998 C389.144812,28.9522998 390.034922,29.8338924 390.298978,31.5971039 C391.72999,29.8338924 393.195052,28.9522998 394.694208,28.9522998 C395.528965,28.9522998 396.199742,29.2376462 396.706559,29.8083475 C397.213376,30.3790489 397.46678,31.1797223 397.46678,32.2103918 C397.46678,32.5340732 397.441227,32.887562 397.390119,33.2708688 L396.316865,40.8858603 L394.093697,40.8858603 L395.192504,33.1686542 C395.235094,32.9045983 395.256388,32.6575821 395.256388,32.427598 C395.256388,31.2776774 394.834757,30.7027257 393.991482,30.7027257 C393.778534,30.7027257 393.544294,30.7474442 393.288756,30.8368825 C393.033218,30.9263207 392.747872,31.0732528 392.432709,31.2776831 C392.117545,31.4821135 391.689526,31.8526379 391.148637,32.3892675 C390.607749,32.9258971 390.324532,33.2708681 390.298978,33.4241908 L389.225724,40.8858603 L387.002555,40.8858603 L388.050256,33.4497445 C388.109881,33.0834735 388.139693,32.7555381 388.139693,32.4659284 C388.139693,31.2904541 387.675473,30.7027257 386.747019,30.7027257 C386.159282,30.7027257 385.42888,31.1137097 384.555792,31.9356899 C383.682704,32.7576702 383.23339,33.2538322 383.207836,33.4241908 L382.160136,40.8858603 L379.936968,40.8858603 L381.610733,29.1311755 L383.833901,29.1311755 Z M410.396934,29.1311755 L408.748722,40.8858603 L406.525554,40.8858603 L406.74276,39.5315162 L406.691652,39.467632 C405.660983,40.566445 404.604775,41.1158433 403.522998,41.1158433 C402.449739,41.1158433 401.536205,40.6622703 400.782368,39.7551107 C400.028531,38.8479512 399.651618,37.7512841 399.651618,36.4650767 C399.651618,34.233379 400.352208,32.3935336 401.753407,30.9454855 C403.154607,29.4974374 405.111572,28.7734242 407.624361,28.7734242 C408.646513,28.7734242 409.570694,28.8926734 410.396934,29.1311755 C410.396934,29.1311755 409.570694,28.8926734 410.396934,29.1311755 Z M406.998296,37.4872232 L407.969336,30.7027257 C407.730834,30.6856899 407.500853,30.6771721 407.279387,30.6771721 C405.533211,30.6771721 404.204434,31.2329587 403.293015,32.3445486 C402.381597,33.4561384 401.925894,34.6976081 401.925894,36.0689949 C401.925894,37.0144851 402.145228,37.7874757 402.583901,38.3879898 C403.022575,38.9885039 403.578361,39.2887564 404.251278,39.2887564 C404.787907,39.2887564 405.375636,39.0225751 406.01448,38.4902044 C406.653325,37.9578338 406.981261,37.6235101 406.998296,37.4872232 C406.998296,37.4872232 406.981261,37.6235101 406.998296,37.4872232 Z M415.673765,29.1311755 L415.379898,31.2010221 L415.431005,31.2521295 C416.683141,29.718902 417.982106,28.9522998 419.327939,28.9522998 C420.239357,28.9522998 420.946335,29.2866236 421.448893,29.9552811 C421.951451,30.6239386 422.202726,31.4863661 422.202726,32.5425894 C422.202726,32.840717 422.177172,33.1516168 422.126065,33.4752981 L421.001704,40.8858603 L418.804089,40.8858603 L419.877342,33.3986371 C419.919932,33.1345813 419.941227,32.8918239 419.941227,32.6703578 C419.941227,32.0570668 419.81346,31.5885876 419.557922,31.2649063 C419.302384,30.941225 418.982966,30.7793867 418.599659,30.7793867 C418.378193,30.7793867 418.129047,30.8347524 417.852215,30.9454855 C417.575382,31.0562186 417.279388,31.2265747 416.964225,31.4565588 C416.649061,31.6865429 416.259372,32.0357728 415.795145,32.5042589 C415.330918,32.9727451 415.086031,33.2708682 415.060477,33.3986371 L413.987223,40.8858603 L411.789608,40.8858603 L413.437819,29.1311755 L415.673765,29.1311755 Z M436.052811,23.0366269 L435.107325,30.076661 C435.959118,29.2078321 436.913112,28.7734242 437.969336,28.7734242 C439.178882,28.7734242 440.169076,29.2695862 440.939949,30.261925 C441.710822,31.2542639 442.096252,32.5468404 442.096252,34.1396934 C442.096252,36.2180683 441.440381,37.9237582 440.12862,39.2568143 C438.816859,40.5898704 436.925907,41.2563884 434.455707,41.2563884 C433.237643,41.2563884 432.198471,41.1925049 431.33816,41.0647359 L433.778535,23.0366269 L436.052811,23.0366269 Z M433.752981,39.4165247 L434.979557,39.4165247 C436.478713,39.4165247 437.660558,38.9352689 438.525128,37.9727428 C439.389698,37.0102167 439.821976,35.7155107 439.821976,34.088586 C439.821976,33.0238448 439.596254,32.193359 439.144804,31.5971039 C438.693354,31.0008488 438.071554,30.7027257 437.279387,30.7027257 C436.776829,30.7027257 436.248725,30.8496578 435.69506,31.1435264 C435.141394,31.437395 434.834753,31.7887543 434.775128,32.197615 C434.775128,32.197615 434.834753,31.7887543 434.775128,32.197615 L433.752981,39.4165247 Z M454.502555,29.1311755 L452.854344,40.8858603 L450.631175,40.8858603 L450.848382,39.5315162 L450.797274,39.467632 C449.766605,40.566445 448.710397,41.1158433 447.62862,41.1158433 C446.555361,41.1158433 445.641827,40.6622703 444.88799,39.7551107 C444.134153,38.8479512 443.75724,37.7512841 443.75724,36.4650767 C443.75724,34.233379 444.457829,32.3935336 445.859029,30.9454855 C447.260228,29.4974374 449.217194,28.7734242 451.729983,28.7734242 C452.752135,28.7734242 453.676316,28.8926734 454.502555,29.1311755 C454.502555,29.1311755 453.676316,28.8926734 454.502555,29.1311755 Z M451.103918,37.4872232 L452.074957,30.7027257 C451.836455,30.6856899 451.606475,30.6771721 451.385009,30.6771721 C449.638833,30.6771721 448.310056,31.2329587 447.398637,32.3445486 C446.487219,33.4561384 446.031516,34.6976081 446.031516,36.0689949 C446.031516,37.0144851 446.25085,37.7874757 446.689523,38.3879898 C447.128196,38.9885039 447.683983,39.2887564 448.356899,39.2887564 C448.893529,39.2887564 449.481257,39.0225751 450.120102,38.4902044 C450.758947,37.9578338 451.086882,37.6235101 451.103918,37.4872232 C451.103918,37.4872232 451.086882,37.6235101 451.103918,37.4872232 Z M459.779387,29.1311755 L459.48552,31.2010221 L459.536627,31.2521295 C460.788763,29.718902 462.087728,28.9522998 463.43356,28.9522998 C464.344979,28.9522998 465.051957,29.2866236 465.554514,29.9552811 C466.057072,30.6239386 466.308348,31.4863661 466.308348,32.5425894 C466.308348,32.840717 466.282794,33.1516168 466.231687,33.4752981 L465.107325,40.8858603 L462.90971,40.8858603 L463.982964,33.3986371 C464.025554,33.1345813 464.046848,32.8918239 464.046848,32.6703578 C464.046848,32.0570668 463.919081,31.5885876 463.663543,31.2649063 C463.408006,30.941225 463.088588,30.7793867 462.705281,30.7793867 C462.483815,30.7793867 462.234669,30.8347524 461.957836,30.9454855 C461.681004,31.0562186 461.38501,31.2265747 461.069847,31.4565588 C460.754683,31.6865429 460.364994,32.0357728 459.900767,32.5042589 C459.436539,32.9727451 459.191653,33.2708682 459.166099,33.3986371 L458.092845,40.8858603 L455.89523,40.8858603 L457.543441,29.1311755 L459.779387,29.1311755 Z M479.902896,23.0366269 L477.38586,40.8858603 C476.525549,41.1328803 475.524708,41.2563884 474.383305,41.2563884 C472.398627,41.2563884 470.871811,40.7836504 469.802811,39.8381601 C468.733811,38.8926699 468.199319,37.551116 468.199319,35.8134583 C468.199319,34.1098722 468.893519,32.5106548 470.281942,31.0157581 C471.670365,29.5208614 473.552799,28.7734242 475.929302,28.7734242 L476.86201,28.7734242 L477.679727,23.0366269 L479.902896,23.0366269 Z M475.405451,39.3654174 L476.606474,30.6260647 L476.031516,30.6260647 C474.37052,30.6260647 473.031095,31.1307445 472.013203,32.1401193 C470.99531,33.149494 470.486371,34.3568925 470.486371,35.7623509 C470.486371,36.9293074 470.822825,37.830065 471.495741,38.4646508 C472.168658,39.0992366 473.131169,39.4165247 474.383305,39.4165247 C474.834755,39.4165247 475.175467,39.3994891 475.405451,39.3654174 C475.405451,39.3654174 475.175467,39.3994891 475.405451,39.3654174 Z M475.405451,39.3654174" id="A-sketchnote-and-des-copy" fill="#D4D4D4" sketch:type="MSShapeGroup"></path>
                <g id="logo-copy" transform="translate(0.000000, 2.126065)" sketch:type="MSShapeGroup">
                    <g id="head">
                        <path d="M18.9745466,107.057961 C18.6949336,107.057961 12.7315773,110.143884 6.38483656,106.468879 C0.03809603,102.793874 -2.95327867,85.0574594 3.96468932,77.3480431 C10.8826568,69.6386258 18.9745466,77.3480431 18.9745466,77.3480431" id="left-ear" stroke="#050505" stroke-width="4.90630324" stroke-linecap="round"></path>
                        <path d="M117.660396,77.8660613 C119.037851,76.7657357 125.897992,69.0257041 132.555498,78.4024331 C138.938171,87.392076 136.944559,100.920095 131.374938,106.005554 C125.805317,111.091013 119.106263,107.148388 117.660396,106.19205" id="right-ear" stroke="#050505" stroke-width="4.90630324" stroke-linecap="round"></path>
                        <path d="M18.9831123,68.6158426 L18.9831123,108.652238 C18.9831123,111.361694 20.2078273,115.380606 21.7194556,117.630018 L44.1224601,150.967306 C45.6337008,153.216141 49.0623243,155.039182 51.7696681,155.039182 L87.6337345,155.039182 C90.3459302,155.039182 93.7167423,153.176584 95.1607427,150.881991 L114.925744,119.474349 C116.3706,117.178396 117.541888,113.121744 117.541888,110.411702 L117.541892,69.4792824" id="outline" stroke="#050505" stroke-width="4.90630324" stroke-linecap="round" stroke-linejoin="round"></path>
                        <path d="M59.4385032,103.776463 C61.3987885,106.135066 61.8974045,108.49367 68.2625023,108.49367 C73.2154937,108.493669 76.2269402,106.135066 77.0865015,103.776463" id="nose" stroke="#050505" stroke-width="4.90630324" stroke-linecap="round"></path>
                        <path d="M75.2005963,134.191227 C77.4927598,135.330281 82.2917379,133.623935 84.9390971,132.073467 C87.5864566,130.522998 89.7214651,127.012564 90.661201,123.965928" id="mouth" stroke="#050505" stroke-width="4.90630324" stroke-linecap="round"></path>
                        <path d="M30.746167,77.846678 L19.4212976,73.4457127 M105.649063,77.846678 L117.355276,73.1337269 M63.1277683,77.8958688 L73.2674617,77.8958688 M75.8552267,70.8265941 C74.5025288,70.8265941 73.4059506,71.9338948 73.4059506,73.27669 L73.4059506,90.1032078 C73.4059506,91.4563584 74.4969172,92.5533037 75.8552266,92.5533037 L103.191072,92.5533037 C104.54377,92.5533037 105.640348,91.446003 105.640348,90.1032078 L105.640349,73.27669 C105.640349,71.9235394 104.549382,70.8265941 103.191073,70.8265941 L75.8552267,70.8265941 Z M33.333932,70.8265941 C31.9812341,70.8265941 30.8846558,71.9338948 30.8846558,73.27669 L30.8846558,90.1032078 C30.8846558,91.4563584 31.9756225,92.5533037 33.3339319,92.5533037 L60.6697771,92.5533037 C62.0224749,92.5533037 63.1190532,91.446003 63.1190533,90.1032078 L63.119054,73.27669 C63.1190541,71.9235394 62.0280875,70.8265941 60.669778,70.8265941 L33.333932,70.8265941 Z M33.333932,70.8265941" id="glasses" stroke="#050505" stroke-width="4.90630324" stroke-linecap="round" stroke-linejoin="round"></path>
                        <circle d="M50.044293,86.6780239 C52.3023568,86.6780239 54.132879,84.8475016 54.132879,82.5894378 C54.132879,80.331374 52.3023568,78.5008518 50.044293,78.5008518 C47.7862292,78.5008518 45.955707,80.331374 45.955707,82.5894378 C45.955707,84.8475016 47.7862292,86.6780239 50.044293,86.6780239 Z M50.044293,86.6780239" id="left-eye" fill="#050505" cx="50.044293" cy="82.5894378" r="4.08858603"></circle>
                        <circle d="M87.4957411,86.6780239 C89.7538049,86.6780239 91.5843271,84.8475016 91.5843271,82.5894378 C91.5843271,80.331374 89.7538049,78.5008518 87.4957411,78.5008518 C85.2376772,78.5008518 83.407155,80.331374 83.407155,82.5894378 C83.407155,84.8475016 85.2376772,86.6780239 87.4957411,86.6780239 Z M87.4957411,86.6780239" id="right-eye" fill="#050505" cx="87.4957411" cy="82.5894378" r="4.08858603"></circle>
                        <path d="M8.17717206,61.9011925 C8.17717206,59.7230447 10.3775047,57.110008 10.3775047,57.110008 C10.6504565,56.7557423 10.6010401,56.2247696 10.2727841,55.9162643 C10.2727841,55.9162643 5.560477,51.8711043 5.560477,48.1635434 C5.560477,44.6791499 9.75300399,40.7060694 9.75300399,40.7060694 C10.0646898,40.3890457 10.1631395,39.8009278 9.98010946,39.3883277 C9.98010946,39.3883277 8.34646508,36.076661 8.43143101,33.5359881 C8.57167082,29.3425079 16.4152811,27.0189659 16.4152811,27.0189659 C16.8376726,26.8782672 17.10651,26.3960924 17.0250437,25.9620905 C17.0250437,25.9620905 16.681431,24.3895769 16.681431,23.1413969 C16.681431,14.6962382 24.5892869,7.85008518 34.3441227,7.85008518 C35.7379172,7.85008518 39.2310193,8.63702943 39.2310193,8.63702943 C39.6693581,8.7316458 40.2284065,8.49485378 40.476346,8.1317971 C40.476346,8.1317971 45.4705117,0 52.2706559,0 C55.6240131,0 61.9583292,2.007775 61.9583292,2.007775 C62.3861558,2.13804162 63.0807951,2.11658707 63.500606,1.96852883 C63.500606,1.96852883 68.6782391,0 72.3679727,0 C77.803469,0 84.3650666,4.14365639 84.3650666,4.14365639 C84.7552966,4.3763204 85.4067002,4.42260015 85.8325545,4.24855783 C85.8325545,4.24855783 90.2459766,2.28960818 93.4650767,2.28960818 C99.7058053,2.28960818 105.400484,9.16018013 105.400484,9.16018013 C105.701188,9.49837706 106.312592,9.73616056 106.753211,9.69786433 C106.753211,9.69786433 107.099163,9.64906303 107.693356,9.64906303 C114.151419,9.64906303 119.386712,14.6280834 119.386712,20.770017 C119.386712,21.9175736 119.041368,23.2702462 119.041368,23.2702462 C118.943745,23.7097331 119.238495,24.0467125 119.468484,24.0408859 C119.468484,24.0408859 119.265536,24.0408859 119.468484,24.0408859 C124.391063,24.0408859 128.381601,29.0199063 128.381601,35.1618399 C128.381601,38.8961973 125.09434,43.5375515 125.09434,43.5375515 C124.845308,43.9130621 124.888701,44.4992173 125.179018,44.8470335 C125.179018,44.8470335 128.381601,48.3512753 128.381601,51.1073254 C128.381601,53.6615851 125.27756,55.9465998 125.27756,55.9465998 C124.92734,56.234867 124.877269,56.7401621 125.17109,57.092453 C125.17109,57.092453 128.381601,60.6912766 128.381601,62.8006814 C128.381601,66.4135836 124.647336,69.3424191 120.040886,69.3424191 C115.434436,69.3424191 111.766161,65.9248563 111.70017,62.8006814 C111.687845,62.2171584 111.699898,62.7870674 111.699898,62.7870674 C111.736493,62.3379344 111.418705,62.0647075 110.976186,62.1569197 C110.976186,62.1569197 110.427293,62.3902406 108.648424,62.3356048 C104.22781,62.199831 101.661678,56.347084 101.661678,56.347084 C101.460647,55.9434035 100.98261,55.8152849 100.596226,56.048789 C100.596226,56.048789 97.0889952,58.3850085 94.2827939,58.3850085 C90.5578047,58.3850085 86.4766447,54.3151488 86.4766447,54.3151488 C86.1500908,54.0125824 85.5244313,53.8563192 85.0795576,53.948972 C85.0795576,53.948972 83.0155451,54.5819847 79.6347956,54.1090223 C74.7248956,53.4221341 70.3247544,48.076249 70.3247544,48.076249 C70.0274034,47.7398894 69.5550337,47.7526061 69.2645365,48.092061 C69.2645365,48.092061 64.6795145,54.1090223 58.5945486,54.1090223 C52.5095826,54.1090228 47.5990992,48.1908373 47.5990992,48.1908373 C47.2989735,47.8585345 46.9273928,47.9290516 46.7493795,48.3416115 C46.7493795,48.3416115 45.8286644,51.308666 42.6950596,52.8954429 C39.3908643,54.5686024 34.9958813,54.1530673 34.9958813,54.1530673 C34.5453232,54.1287421 34.2411594,54.4679511 34.304411,54.9167341 C34.304411,54.9167341 34.3441227,54.9861921 34.3441227,55.4412266 C34.3441227,59.4605802 33.0121982,62.6660905 27.592845,62.6660905 C27.1906524,62.6660905 24.1697236,62.666092 24.1697236,62.666092 C23.7132855,62.6660922 23.1586297,62.9723295 22.9132189,63.357659 C22.9132189,63.357659 19.7057028,69.0153322 15.7819421,69.0153322 C11.5819434,69.0153322 8.17717206,65.8302236 8.17717206,61.9011925 Z M8.17717206,61.9011925" id="hair" stroke="#050505" stroke-width="4.90630324" fill="#333333"></path>
                    </g>
                    <g id="bsn" transform="translate(18.193406, 158.473595)" stroke="#1B86AE" stroke-width="4.90630324" stroke-linecap="round">
                        <path d="M1.11679306,0.812105403 L1.11679302,42.8854055" id="b-stem"></path>
                        <path d="M1.11679304,16.8446114 C1.11679304,16.8446114 12.5090976,9.97321569 22.1910332,17.2281084 C31.8729693,24.4830003 30.5984453,35.2173259 22.5754403,41.2179302 C14.5524355,47.2185345 1.11679302,40.5197321 1.11679302,40.5197321" id="b-loop"></path>
                        <path d="M63.1317298,19.9912007 C63.1317298,19.9912007 57.3970679,14.172498 49.7755956,14.172498 C42.1541234,14.1724979 39.8645155,15.125028 37.9768609,17.4224183 C36.0892062,19.7198086 35.3406165,23.8486226 38.8416163,25.9911627 C42.3426166,28.1337027 46.7333397,26.7366125 53.275078,28.7101027 C59.8168163,30.6835928 61.6157932,31.806459 62.7847082,35.0173032 C63.9536231,38.2281474 61.7793366,40.3107179 60.4325173,41.5043992 C57.6341287,43.9846009 51.4761001,43.7451304 47.714601,43.7451304 C43.9531018,43.7451304 38.6780728,42.7638698 36.9207335,39.9836313 C35.1633944,37.2033927 36.9207335,34.7502411 36.9207335,34.7502411" id="s_bsn"></path>
                        <path d="M71.5765549,11.1650466 L71.5765549,43.045712" id="n-stem"></path>
                        <path d="M71.5919431,17.0085179 C71.5919431,17.0085179 78.6261997,12.9199305 85.5472476,12.9199319 C92.1769304,12.9199332 96.6142872,16.0328093 98.4864243,22.026046 C100.358561,28.0192827 98.4864243,43.7151541 98.4864243,43.7151541" id="n-shoulder"></path>
                    </g>
                    <g id="design" transform="translate(19.134583, 211.298126)" stroke-width="3.27086882" stroke-linecap="round">
                        <path d="M13.4105622,0.0786310802 L13.4105622,21.7281925" id="d-stem" stroke="#050505"></path>
                        <path d="M13.328449,8.33501736 C13.328449,8.33501736 5.86394073,5.34399983 2.36758547,9.02437319 C-0.207704095,11.735204 -1.29203612,15.9359334 2.36758542,19.3927726 C6.02720727,22.8496115 13.328449,19.3927729 13.328449,19.3927729" id="d-loop" stroke="#050505"></path>
                        <path d="M20.5567209,14.3599368 C20.5567209,14.3599368 31.2412065,14.7782094 32.0777525,14.3599368 C32.9142985,13.9416641 33.9732159,13.2242469 32.2297073,11.2308331 C30.4861983,9.23741934 26.7545702,7.1291129 23.18125,9.22788901 C19.6079301,11.3266652 19.92137,17.5578706 21.4589193,19.4093888 C22.9964687,21.2609071 26.8244578,23.5121676 32.2297072,19.9467899" id="e" stroke="#050505"></path>
                        <path d="M51.0020332,10.7453634 C51.0020332,10.7453634 48.4391157,8.02935182 45.0329508,8.02935182 C41.6267858,8.02935182 40.6035213,8.47396685 39.7598965,9.54632594 C38.9162716,10.618685 38.5817143,12.5459027 40.1463703,13.5459819 C41.7110266,14.5460611 42.5306907,13.9368779 45.4448297,14.782618 C48.3589688,15.6283581 50.459867,16.1380335 50.8469433,17.7591379 C51.2340197,19.3802423 50.1887839,20.475363 49.7957094,20.7871372 C48.4736525,21.835751 45.792935,21.8330494 44.1118574,21.8330494 C42.4307797,21.8330494 40.5809575,21.641077 39.7598965,20.7871369 C38.9388355,19.9331968 38.9388355,18.7133229 38.9388355,18.7133229" id="s_design" stroke="#050505"></path>
                        <path d="M57.2402044,8.21112391 L57.2402044,21.7281925" id="i-stem" stroke="#050505"></path>
                        <path id="i-dot" stroke="#000000" d="M57.4104937,2.7802385 L57.4104937,2.7802385"></path>
                        <path d="M78.1737643,11.6115843 C78.1737643,11.6115843 73.4310051,5.72402048 68.06176,9.15008762 C62.6925151,12.5761557 65.1521562,19.5647929 68.06176,21.2548054 C70.9713637,22.9448183 75.2682127,22.5374983 76.8812873,20.3751403 C78.4943617,18.2127822 78.5008513,14.3918225 78.5008513,14.3918225 C78.5008513,14.3918225 78.3113336,25.6488384 78.0037314,27.5078527 C77.6961292,29.3668669 74.7328632,31.5638837 72.2797116,31.5638837 C69.8265599,31.5638837 68.6817559,31.5638837 66.8827778,30.0428721 C65.6274844,28.9815382 65.410887,27.676854 65.410887,27.676854" id="g" stroke="#050505" stroke-linejoin="round"></path>
                        <path d="M84.7155026,7.59335843 L84.7155026,21.7015476" id="n-stem_design" stroke="#050505"></path>
                        <path d="M85.5676505,9.85427131 C85.5676505,9.85427131 88.7241494,8.01958967 91.8298479,8.01959026 C94.8048014,8.01959085 96.7959872,9.41643924 97.6360758,12.1057988 C98.4761644,14.7951583 97.6360758,21.8384045 97.6360758,21.8384045" id="n-shoulder_design" stroke="#050505"></path>
                    </g>
                </g>
            </g>
        </g>
    </g>
</svg>