<?xml version="1.0" encoding="UTF-8" standalone="no"?>
<svg viewBox="0 0 80 80" version="1.1" xmlns="http://www.w3.org/2000/svg" xmlns:xlink="http://www.w3.org/1999/xlink" xmlns:sketch="http://www.bohemiancoding.com/sketch/ns">
    <title>flickr</title>
    <description>Created with Sketch (http://www.bohemiancoding.com/sketch)</description>
    <defs></defs>
    <g id="Page-1" stroke="none" stroke-width="1" fill="none" fill-rule="evenodd" sketch:type="MSPage">
        <g id="flickr" sketch:type="MSArtboardGroup">
            <g sketch:type="MSLayerGroup" transform="translate(15.000000, 28.000000)" id="Shape">
                <path d="M10.3130303,0.519848485 C7.71863636,1.08363636 5.08454545,2.27060606 3.10893939,4.06924242 C0.786666667,6.18606061 0.140909091,9.20863636 0.0683333333,12.2440909 C-0.104545455,19.4736364 7.04969697,23.1534848 13.4866667,23.1781818 C20.5289394,23.2054545 23.7186364,16.1978788 23.8375758,10.105 C23.9559091,3.88712121 15.9436364,-0.7 10.3130303,0.519848485 C9.71939394,0.648787879 10.7610606,0.422727273 10.3130303,0.519848485 C10.3130303,0.519848485 10.7610606,0.422727273 10.3130303,0.519848485 L10.3130303,0.519848485 L10.3130303,0.519848485 Z M13.0942424,21.6633333 C10.4784848,21.6268182 8.02272727,20.9456061 5.75151515,19.6386364 C2.53969697,17.790303 1.45045455,14.8207576 1.61878788,11.2881818 C1.87969697,6.17227273 5.79484848,2.50909091 10.9068182,2.37833333 C11.2234848,2.36530303 11.4998485,2.17651515 11.6122727,1.89590909 C15.86,1.89287879 21.1493939,4.25378788 22.2015152,8.76742424 C23.5575758,14.5865152 19.3278788,21.7657576 13.0942424,21.6633333 C12.9669697,21.6615152 13.310303,21.6668182 13.0942424,21.6633333 C13.0942424,21.6633333 13.310303,21.6668182 13.0942424,21.6633333 L13.0942424,21.6633333 L13.0942424,21.6633333 Z M13.0942424,21.6633333" fill="#000000" sketch:type="MSShapeGroup"></path>
                <path d="M35.2672727,0.0433333333 C29.2698485,0.180606061 26.4689394,8.26818182 26.4409091,13.1954545 C26.4034848,19.8036364 34.6162121,23.3331818 40.285,22.8140909 C46.6015152,22.2357576 50.464697,15.4962121 49.8618182,9.59757576 C49.1698485,2.82787879 41.0401515,-0.0936363636 35.2672727,0.0433333333 C34.905,0.0516666667 35.4136364,0.04 35.2672727,0.0433333333 C35.2672727,0.0433333333 35.4136364,0.04 35.2672727,0.0433333333 L35.2672727,0.0433333333 L35.2672727,0.0433333333 Z M36.1969697,1.55560606 C41.0557576,1.57772727 46.874697,4.01424242 48.2439394,9.14848485 C49.615,14.2898485 45.3606061,21.1940909 39.8221212,21.3260606 C34.9306061,21.4425758 27.8168182,18.8074242 27.955303,12.8993939 C28.0659091,8.18121212 30.7165152,1.53333333 36.1969697,1.55560606 C36.4580303,1.55666667 35.7793939,1.55393939 36.1969697,1.55560606 C36.1969697,1.55560606 35.7793939,1.55393939 36.1969697,1.55560606 L36.1969697,1.55560606 L36.1969697,1.55560606 Z M36.1969697,1.55560606" fill="#000000" sketch:type="MSShapeGroup"></path>
                <path d="M11.6122727,1.89590909 C11.4998485,2.17651515 11.2234848,2.36530303 10.9068182,2.37833333 C6.10287879,2.50121212 2.39333333,5.71409091 1.70575758,10.4316667 C1.32530303,13.3983333 1.74181818,15.8016667 3.77757576,18.0443939 C5.44848485,19.8851515 8.46151515,21.1945455 10.8854545,21.5686364 C14.0906061,21.9331818 16.964697,21.5556061 19.2536364,19.0698485 C21.4651515,16.664697 22.1672727,13.7454545 22.310303,10.5765152 C22.5595455,5.05090909 16.4639394,1.89227273 11.6122727,1.89590909 C11.6122727,1.89590909 16.4639394,1.89227273 11.6122727,1.89590909 L11.6122727,1.89590909 L11.6122727,1.89590909 Z M11.6122727,1.89590909" fill="#929292" sketch:type="MSShapeGroup"></path>
            </g>
        </g>
    </g>
</svg>