<?xml version="1.0" encoding="UTF-8" standalone="no"?>
<svg viewBox="0 0 132 60" version="1.1" xmlns="http://www.w3.org/2000/svg" xmlns:xlink="http://www.w3.org/1999/xlink" xmlns:sketch="http://www.bohemiancoding.com/sketch/ns">
    <title>BSN Design Home</title>
    <description>Created with Sketch (http://www.bohemiancoding.com/sketch)</description>
    <defs></defs>
    <g id="Page-1" stroke="none" stroke-width="1" fill="none" fill-rule="evenodd" sketch:type="MSPage">
        <g id="home-small" sketch:type="MSArtboardGroup" transform="translate(0.000000, -3.000000)">
            <g id="home" sketch:type="MSLayerGroup" transform="translate(2.000000, 5.000000)">
                <path d="M62.2014108,0.500000013 L62.2014108,28.8220508" id="b-stem-copy" stroke="#1B86AE" stroke-width="3.28485885" stroke-linecap="round" sketch:type="MSShapeGroup"></path>
                <path d="M62.2014108,11.3872676 C62.2014108,11.3872676 69.828765,6.78674378 76.3109962,11.6440258 C82.7932277,16.5013073 81.9399108,23.6881326 76.5683637,27.7056459 C71.1968167,31.7231591 62.2014108,27.2381896 62.2014108,27.2381896" id="b-loop-copy" stroke="#1B86AE" stroke-width="3.28485885" stroke-linecap="round" sketch:type="MSShapeGroup"></path>
                <path d="M103.721534,13.4939661 C103.721534,13.4939661 99.8820738,9.59823929 94.7793602,9.59823929 C89.6766465,9.59823929 88.1437126,10.2359754 86.8798936,11.7741198 C85.6160746,13.3122642 85.1148803,16.0765799 87.4588631,17.5110493 C89.8028461,18.9455186 92.7425148,18.0101415 97.122327,19.3314289 C101.502139,20.6527162 102.706587,21.4044955 103.489197,23.5542138 C104.271806,25.7039321 102.816082,27.0982509 101.914362,27.897442 C100.04079,29.557982 95.9178787,29.3976522 93.399487,29.3976522 C90.8810952,29.3976522 87.3493677,28.7406804 86.1727973,26.8792604 C84.9962269,25.0178403 86.1727972,23.375411 86.1727972,23.375411" id="s_bsn-copy" stroke="#1B86AE" stroke-width="3.28485885" stroke-linecap="round" sketch:type="MSShapeGroup"></path>
                <path d="M109.375497,8.49999998 L109.375497,28.9293789" id="n-stem-copy" stroke="#1B86AE" stroke-width="3.28485885" stroke-linecap="round" sketch:type="MSShapeGroup"></path>
                <path d="M109.3858,11.497006 C109.3858,11.497006 114.095362,8.75962273 118.729129,8.75962361 C123.167822,8.75962449 126.138712,10.8437514 127.392142,14.8563319 C128.645572,18.8689124 127.392142,29.3775825 127.392142,29.3775825" id="n-shoulder-copy" stroke="#1B86AE" stroke-width="3.28485885" stroke-linecap="round" sketch:type="MSShapeGroup"></path>
                <path d="M71.0624465,35.5291206 L71.0624465,50.0238939" id="d-stem-copy" stroke="#050505" stroke-width="2.1899059" stroke-linecap="round" sketch:type="MSShapeGroup"></path>
                <path d="M71.0074703,41.0569207 C71.0074703,41.0569207 66.0098468,39.0543803 63.6689737,41.5184569 C61.9447707,43.3334072 61.2187908,46.1458716 63.6689736,48.460288 C66.1191567,50.7747042 71.0074702,48.4602882 71.0074702,48.4602882" id="d-loop-copy" stroke="#050505" stroke-width="2.1899059" stroke-linecap="round" sketch:type="MSShapeGroup"></path>
                <path d="M75.8469292,45.0907133 C75.8469292,45.0907133 83.0003858,45.3707544 83.5604685,45.0907133 C84.1205512,44.8106722 84.8295155,44.3303484 83.6622049,42.9957217 C82.4948941,41.6610951 79.9965015,40.2495458 77.604099,41.6547144 C75.2116966,43.059883 75.4215503,47.2317879 76.4509674,48.4714129 C77.4803845,49.7110379 80.0432926,51.2182976 83.6622049,48.8312126" id="e-copy" stroke="#050505" stroke-width="2.1899059" stroke-linecap="round" sketch:type="MSShapeGroup"></path>
                <path d="M96.230617,42.670691 C96.230617,42.670691 94.5146974,40.852272 92.2342083,40.852272 C89.9537192,40.852272 89.268625,41.1499499 88.703803,41.8679137 C88.1389808,42.5858775 87.9149886,43.8761846 88.9625542,44.5457558 C90.0101199,45.2153269 90.5588999,44.8074677 92.5099687,45.373706 C94.4610376,45.9399444 95.8676269,46.2811812 96.1267816,47.36654 C96.3859362,48.4518987 95.6861319,49.1851019 95.4229614,49.3938404 C94.5378204,50.0959063 92.7430315,50.0940975 91.6175196,50.0940975 C90.4920076,50.0940975 89.2535182,49.9655685 88.703803,49.3938401 C88.1540877,48.8221118 88.1540877,48.0053841 88.1540877,48.0053841" id="s_design-copy" stroke="#050505" stroke-width="2.1899059" stroke-linecap="round" sketch:type="MSShapeGroup"></path>
                <path d="M100.407186,40.9739718 L100.407186,50.0238939" id="i-stem-copy" stroke="#050505" stroke-width="2.1899059" stroke-linecap="round" sketch:type="MSShapeGroup"></path>
                <path id="i-dot-copy" stroke="#000000" stroke-width="2.1899059" stroke-linecap="round" sketch:type="MSShapeGroup" d="M100.521197,37.3378956 L100.521197,37.3378956"></path>
                <path d="M114.422583,43.2506415 C114.422583,43.2506415 111.24722,39.308811 107.652413,41.602625 C104.057606,43.8964396 105.704381,48.5754587 107.652413,49.7069527 C109.600445,50.8384469 112.477264,50.5657388 113.557246,49.118001 C114.637229,47.6702631 114.641574,45.1120614 114.641574,45.1120614 C114.641574,45.1120614 114.514688,52.6488374 114.308743,53.8934811 C114.102798,55.1381247 112.118837,56.6090673 110.476408,56.6090673 C108.833979,56.6090673 108.067511,56.6090673 106.863063,55.5907225 C106.022621,54.8801402 105.877606,54.0066305 105.877606,54.0066305" id="g-copy" stroke="#050505" stroke-width="2.1899059" stroke-linecap="round" stroke-linejoin="round" sketch:type="MSShapeGroup"></path>
                <path d="M118.802395,40.5603666 L118.802395,50.0060547" id="n-stem_design-copy" stroke="#050505" stroke-width="2.1899059" stroke-linecap="round" sketch:type="MSShapeGroup"></path>
                <path d="M119.372924,42.0740887 C119.372924,42.0740887 121.486257,40.8457361 123.565578,40.8457365 C125.557363,40.8457369 126.890498,41.7809522 127.452953,43.5815271 C128.015407,45.382102 127.452953,50.0976828 127.452953,50.0976828" id="n-shoulder_design-copy" stroke="#050505" stroke-width="2.1899059" stroke-linecap="round" sketch:type="MSShapeGroup"></path>
                <path d="M44.893071,49.710864 L30.6586826,49.710864 L30.6586826,36.1334474 L21.899059,36.1334474 L21.899059,49.710864 L7.66467066,49.710864 L7.66467066,16.9358743 L-8.66144909e-15,16.9358737 L26.2788708,0.109495295 L35.1563527,5.79375301 L35.1563536,0.109495295 L41.6800584,0.109495294 L41.6800598,9.97088717 L52.5577417,16.9358743 L44.893071,16.9358743 L44.893071,49.710864 Z M44.893071,49.710864" id="home-copy" stroke="#050505" stroke-width="3.28485885" stroke-linejoin="round" sketch:type="MSShapeGroup"></path>
            </g>
        </g>
    </g>
</svg>