<?xml version="1.0" encoding="UTF-8" standalone="no"?>
<svg viewBox="0 0 80 80" version="1.1" xmlns="http://www.w3.org/2000/svg" xmlns:xlink="http://www.w3.org/1999/xlink" xmlns:sketch="http://www.bohemiancoding.com/sketch/ns">
    <title>linkedin</title>
    <description>Created with Sketch (http://www.bohemiancoding.com/sketch)</description>
    <defs></defs>
    <g id="Page-1" stroke="none" stroke-width="1" fill="none" fill-rule="evenodd" sketch:type="MSPage">
        <g id="linkedin" sketch:type="MSArtboardGroup" fill="#000000">
            <g sketch:type="MSLayerGroup" transform="translate(15.000000, 15.000000)" id="Shape">
                <path d="M6.13909396,0.13557047 C5.71493289,0.180369128 5.29228188,0.23590604 4.87080537,0.302013423 C3.45671141,0.495469799 1.73657718,2.67432886 1.13187919,3.80469799 C0.172483221,5.59815436 -0.209563758,8.27634228 0.581208054,10.1991611 C1.89748322,13.3991611 7.31342282,14.6526846 10.3644295,13.7753356 C13.9530201,12.7431208 15.7758389,8.62332215 15.1129195,5.09983221 C14.3768456,1.18607383 9.47214765,0.0288590604 6.13909396,0.13557047 C5.91627517,0.142785235 6.21845638,0.133053691 6.13909396,0.13557047 C6.13909396,0.13557047 6.21845638,0.133053691 6.13909396,0.13557047 L6.13909396,0.13557047 L6.13909396,0.13557047 Z M6.37365772,1.81006711 C8.93557047,1.8261745 12.9305369,2.44077181 13.4926174,5.55050336 C13.7082215,8.23120805 12.7904362,11.3474832 9.91778523,12.1552013 C7.56812081,12.8159396 3.27114094,11.9244966 2.12751678,9.56963087 C1.66342282,8.32734899 1.81761745,6.57919463 2.25503356,5.34043624 C3.03003356,3.59949664 4.08372483,3.06778523 5.48456376,1.8966443 C5.77852349,1.84379195 6.07483221,1.81493289 6.37365772,1.81006711 C6.47852349,1.81073826 6.19295302,1.8090604 6.37365772,1.81006711 C6.37365772,1.81006711 6.19295302,1.8090604 6.37365772,1.81006711 L6.37365772,1.81006711 L6.37365772,1.81006711 Z M2.37063758,10.0110738 C2.38372483,10.0278523 2.3966443,10.0447987 2.40956376,10.0615772 C2.3966443,10.0447987 2.38355705,10.0278523 2.37063758,10.0110738 C2.37063758,10.0110738 2.38355705,10.0278523 2.37063758,10.0110738 L2.37063758,10.0110738 L2.37063758,10.0110738 Z M2.37063758,10.0110738" sketch:type="MSShapeGroup"></path>
                <path d="M2.11107383,16.4357383 C1.90201342,16.4934564 1.71979866,16.6337248 1.60973154,16.8211409 C1.36057047,17.4122483 1.62818792,18.2442953 1.66342282,18.8555369 C1.75855705,20.4766779 1.70721477,22.1135906 1.70788591,23.7370805 C1.70922819,26.9909396 1.70805369,30.2447987 1.70805369,33.4984899 L1.70805369,42.9979866 C1.70805369,43.5865772 1.44781879,49.8864094 3.21090604,48.1233221 C3.35503356,47.9785235 3.47634228,47.7412752 3.45604027,47.5302013 C2.53171141,37.4506711 4.52399329,27.0620805 3.14345638,17.0216443 C3.1159396,16.8197987 2.92516779,16.617953 2.75805369,16.520302 C2.54798658,16.4048658 2.33238255,16.3766779 2.11107383,16.4357383 C1.90201342,16.4934564 2.18372483,16.4157718 2.11107383,16.4357383 C2.11107383,16.4357383 2.18372483,16.4157718 2.11107383,16.4357383 L2.11107383,16.4357383 L2.11107383,16.4357383 Z M2.11107383,16.4357383" sketch:type="MSShapeGroup"></path>
                <path d="M1.35419463,16.9614094 C1.35419463,17.4338926 1.73624161,17.7807047 2.19312081,17.8003356 C5.45520134,17.9432886 8.74127517,17.6852349 11.9971477,17.8743289 C12.9694631,19.4541946 12.4614094,22.5684564 12.4627517,24.3124161 C12.4672819,27.2687919 12.5348993,30.225 12.534396,33.1822148 C12.5338926,36.3622483 12.565604,39.5432886 12.4555369,42.7219799 C12.4255034,43.5884228 11.7545302,50.0822148 13.652349,48.960906 C14.7385906,48.3189597 14.1333893,43.2496644 14.1493289,42.0823826 C14.1902685,39.1055369 14.2119128,36.1312081 14.2119128,33.1536913 C14.2119128,30.1889262 14.1449664,27.2251678 14.1404362,24.2612416 C14.1375839,22.3488255 14.7991611,17.7268456 12.9213087,16.4625839 C11.6682886,15.6263423 8.83439597,16.1932886 7.40100671,16.1932886 C5.65436242,16.1932886 3.90687919,16.1218121 2.16174497,16.1218121 C1.71845638,16.1218121 1.35419463,16.5291946 1.35419463,16.9614094 C1.35419463,17.4338926 1.35419463,16.5291946 1.35419463,16.9614094 C1.35419463,16.9614094 1.35419463,16.5291946 1.35419463,16.9614094 L1.35419463,16.9614094 L1.35419463,16.9614094 Z M11.9456376,17.8580537 C11.9540268,17.8590604 11.9622483,17.8600671 11.9704698,17.8614094 C11.9620805,17.8602349 11.9538591,17.8588926 11.9456376,17.8580537 C11.9456376,17.8580537 11.9538591,17.8588926 11.9456376,17.8580537 L11.9456376,17.8580537 L11.9456376,17.8580537 Z M12.0911074,17.8911074 C12.115604,17.9 12.1395973,17.9097315 12.163255,17.9216443 C12.1392617,17.9114094 12.1151007,17.9011745 12.0911074,17.8911074 C12.0911074,17.8911074 12.1151007,17.9011745 12.0911074,17.8911074 L12.0911074,17.8911074 L12.0911074,17.8911074 Z M12.0421141,17.9192953 C12.0520134,17.9313758 12.0614094,17.9437919 12.0706376,17.9563758 C12.0612416,17.9441275 12.0516779,17.9317114 12.0421141,17.9192953 C12.0421141,17.9192953 12.0516779,17.9317114 12.0421141,17.9192953 L12.0421141,17.9192953 L12.0421141,17.9192953 Z M12.0421141,17.9192953" sketch:type="MSShapeGroup"></path>
                <path d="M2.12298658,47.1598993 C1.93557047,47.2692953 1.79530201,47.4515101 1.73758389,47.6612416 C1.67802013,47.8775168 1.70872483,48.1134228 1.82214765,48.3075503 C1.92567114,48.4838926 2.11778523,48.6516779 2.32348993,48.692953 C4.43338926,49.1176174 6.51912752,49.0770134 8.66325503,49.0770134 C9.38942953,49.0770134 14.9182886,49.6872483 13.8130872,47.8172819 C13.1696309,46.7286913 8.74110738,47.3994966 7.57550336,47.3991611 C6.62365772,47.3991611 5.66845638,47.4135906 4.71744966,47.3630872 C4.01996644,47.3256711 2.77483221,46.7790268 2.12298658,47.1598993 C1.93557047,47.2692953 2.25654362,47.0818792 2.12298658,47.1598993 C2.12298658,47.1598993 2.25654362,47.0818792 2.12298658,47.1598993 L2.12298658,47.1598993 L2.12298658,47.1598993 Z M2.12298658,47.1598993" sketch:type="MSShapeGroup"></path>
                <path d="M18.3639262,16.1575503 C18.1541946,16.2152685 17.9719799,16.3555369 17.8625839,16.542953 C17.4714765,17.2105705 18.0216443,19.0751678 18.0345638,19.8825503 C18.0573826,21.297651 18.0699664,22.713255 18.0860738,24.1286913 C18.1167785,26.8097315 18.6083893,29.4520134 18.6338926,32.1313758 C18.6865772,37.6748322 18.7073826,43.2120805 18.7073826,48.7568792 C18.7090604,49.8370805 20.3869128,49.8375839 20.3852349,48.7568792 C20.3852349,43.1072148 20.4399329,37.4697987 20.3078859,31.8208054 C20.2530201,29.4676174 19.8,27.1447987 19.7783557,24.7921141 C19.7597315,22.1265101 19.9067114,19.3708054 19.3956376,16.7436242 C19.3563758,16.5377517 19.185906,16.3444631 19.0102349,16.2422819 C18.8003356,16.1266779 18.5850671,16.0984899 18.3639262,16.1575503 C18.1541946,16.2152685 18.4362416,16.1375839 18.3639262,16.1575503 C18.3639262,16.1575503 18.4362416,16.1375839 18.3639262,16.1575503 L18.3639262,16.1575503 L18.3639262,16.1575503 Z M18.3639262,16.1575503" sketch:type="MSShapeGroup"></path>
                <path d="M27.1063758,15.9481544 C24.2577181,15.9622483 21.4401007,16.1823826 18.586745,16.0667785 C17.5065436,16.0234899 17.5092282,17.7013423 18.586745,17.7446309 C21.3870805,17.8580537 24.1518456,17.6696309 26.9463087,17.6256711 C27.0761745,18.241443 27.0469799,18.9201342 27.0454698,19.5449664 C27.0422819,20.6256711 28.7201342,20.6253356 28.7233221,19.5449664 C28.7255034,18.690604 28.7602349,17.7580537 28.5011745,16.9298658 C28.2909396,16.261745 27.7778523,15.9451342 27.1063758,15.9481544 C26.3041946,15.9520134 27.1419463,15.9481544 27.1063758,15.9481544 L27.1063758,15.9481544 L27.1063758,15.9481544 L27.1063758,15.9481544 Z M26.8291946,17.3283557 C26.8461409,17.3479866 26.861745,17.3682886 26.8763423,17.3895973 C26.8605705,17.3692953 26.8449664,17.3489933 26.8291946,17.3283557 C26.8291946,17.3283557 26.8449664,17.3489933 26.8291946,17.3283557 L26.8291946,17.3283557 L26.8291946,17.3283557 Z M26.8291946,17.3283557" sketch:type="MSShapeGroup"></path>
                <path d="M36.3115772,14.8922819 C32.8531879,14.990604 30.0169463,16.8256711 27.6510067,19.1917785 C27.3278523,19.515604 27.3278523,20.0550336 27.6510067,20.3786913 C27.9741611,20.7018456 28.5142617,20.7018456 28.8372483,20.3786913 C30.0459732,19.1677852 31.2489933,18.0840604 32.8399329,17.4184564 C32.829698,17.422651 32.8196309,17.4270134 32.8095638,17.4312081 C38.8098993,15.0013423 47.1963087,18.1897651 47.8446309,25.1397651 C48.2536913,29.5234899 48.1001678,34.0219799 48.1005034,38.4224832 C48.1006711,40.4407718 48.0998322,42.4592282 48.0994966,44.4775168 C48.0994966,45.5412752 47.5211409,48.3605705 48.0338926,49.2404362 C48.1432886,49.4285235 48.3255034,49.5681208 48.5352349,49.6265101 C48.7515101,49.6860738 48.9874161,49.6553691 49.1815436,49.5419463 C49.3493289,49.4436242 49.5380872,49.2424497 49.5669463,49.040604 C50.1048658,45.2493289 49.7753356,41.2654362 49.7776846,37.4407718 C49.7800336,33.5449664 49.8969799,29.5630872 49.5718121,25.6793624 C49.2911074,22.3260067 48.204698,19.3323826 45.2338926,17.4503356 C42.6174497,15.7954698 39.3949664,14.8040268 36.3115772,14.8922819 C35.8043624,14.9067114 36.6963087,14.8810403 36.3115772,14.8922819 C36.3115772,14.8922819 36.6963087,14.8810403 36.3115772,14.8922819 L36.3115772,14.8922819 L36.3115772,14.8922819 Z M36.3115772,14.8922819" sketch:type="MSShapeGroup"></path>
                <path d="M27.6446309,48.0380872 C25.029698,48.0426174 22.3986577,48.0449664 19.7862416,48.1580537 C18.709396,48.2045302 18.7060403,49.8823826 19.7862416,49.835906 C22.3973154,49.7228188 25.0310403,49.7204698 27.6446309,49.7159396 C28.7251678,49.7145973 28.7251678,48.0380872 27.6446309,48.0380872 C26.9073826,48.0394295 27.6451342,48.0380872 27.6446309,48.0380872 L27.6446309,48.0380872 L27.6446309,48.0380872 L27.6446309,48.0380872 Z M27.6446309,48.0380872" sketch:type="MSShapeGroup"></path>
                <path d="M35.4223154,23.335906 C29.8540268,23.4721477 27.3800336,27.8439597 27.4018456,32.9325503 C27.4144295,35.8494966 27.4021812,38.766443 27.4065436,41.683557 C27.411745,43.9342282 27.7875839,46.1511745 27.5854027,48.397651 C27.5657718,48.6087248 27.6857383,48.8459732 27.8312081,48.9907718 C28.2265101,49.3184564 28.6221477,49.3184564 29.0174497,48.9907718 C30.0931208,47.910906 29.120302,44.415604 29.0947987,43.0526846 C29.0488255,40.5578859 29.0830537,38.0607383 29.0830537,35.565604 C29.0830537,31.3614094 28.8964765,25.9739933 34.2404362,25.085906 C36.3600671,24.8548658 38.3251678,24.9283557 38.9182886,27.3776846 C39.4889262,29.7342282 39.2197987,32.4837248 39.2224832,34.8968121 C39.2255034,37.3582215 39.1446309,39.8018456 39.0615772,42.2604027 C38.9951342,44.2614094 38.7191275,46.6327181 39.0766779,48.6119128 C39.2307047,49.4704698 40.2229866,49.5622483 40.9261745,49.6219799 C42.3,49.7389262 49.6568792,50.5833893 49.6568792,48.9370805 C49.6568792,47.4535235 42.0813758,48.0582215 40.7135906,47.9248322 C40.7239933,43.2736577 40.9127517,38.6330537 40.8983221,33.9822148 C40.8848993,29.5696309 41.4776846,23.197651 35.4223154,23.335906 C34.9936242,23.3464765 35.6808725,23.3300336 35.4223154,23.335906 C35.4223154,23.335906 35.6808725,23.3300336 35.4223154,23.335906 L35.4223154,23.335906 L35.4223154,23.335906 Z M35.4223154,23.335906" sketch:type="MSShapeGroup"></path>
            </g>
        </g>
    </g>
</svg>