<?xml version="1.0" encoding="UTF-8" standalone="no"?>
<svg viewBox="0 0 197 343" version="1.1" xmlns="http://www.w3.org/2000/svg" xmlns:xlink="http://www.w3.org/1999/xlink" xmlns:sketch="http://www.bohemiancoding.com/sketch/ns">
    <title>logo small</title>
    <description>Created with Sketch (http://www.bohemiancoding.com/sketch)</description>
    <defs></defs>
    <g id="Page-1" stroke="none" stroke-width="1" fill="none" fill-rule="evenodd" sketch:type="MSPage">
        <g id="logo-small" sketch:type="MSArtboardGroup">
            <g id="logo" sketch:type="MSLayerGroup" transform="translate(4.000000, 4.000000)">
                <path d="M26.2611417,148.114869 C25.8741519,148.114869 17.6207507,152.384249 8.83673805,147.299874 C0.052725647,142.215497 -4.08739516,117.677138 5.48720718,107.011148 C15.0618089,96.345156 26.2611417,107.011148 26.2611417,107.011148" id="left-ear" stroke="#050505" stroke-width="6.78787879" stroke-linecap="round" sketch:type="MSShapeGroup"></path>
                <path d="M162.844278,107.727827 C164.750703,106.205525 174.245272,95.4971779 183.459389,108.469898 C192.293132,120.907084 189.533934,139.623122 181.825471,146.658863 C174.117007,153.694603 164.845385,148.239976 162.844278,146.91688" id="right-ear" stroke="#050505" stroke-width="6.78787879" stroke-linecap="round" sketch:type="MSShapeGroup"></path>
                <path d="M26.2729968,94.9301337 L26.2729968,150.320554 C26.2729968,154.069091 27.9680263,159.629263 30.0601492,162.741328 L61.0663435,208.863522 C63.15793,211.974789 67.8925523,214.49697 71.6502281,214.49697 L121.286794,214.49697 C125.040526,214.49697 129.705795,211.920062 131.70432,208.745488 L159.059467,165.292963 C161.059176,162.116508 162.680261,156.504124 162.680261,152.754776 L162.680267,96.1247041" id="outline" stroke="#050505" stroke-width="6.78787879" stroke-linecap="round" stroke-linejoin="round" sketch:type="MSShapeGroup"></path>
                <path d="M82.2640452,143.574912 C84.9771182,146.838043 85.6672124,150.101175 94.4766317,150.101174 C101.331668,150.101174 105.499569,146.838043 106.689218,143.574912" id="nose" stroke="#050505" stroke-width="6.78787879" stroke-linecap="round" sketch:type="MSShapeGroup"></path>
                <path d="M104.079089,185.653788 C107.251488,187.229672 113.893367,184.86894 117.557363,182.723864 C121.22136,180.578788 124.176254,175.722096 125.476867,171.507071" id="mouth" stroke="#050505" stroke-width="6.78787879" stroke-linecap="round" sketch:type="MSShapeGroup"></path>
                <path d="M42.5532934,107.70101 L26.8794538,101.612267 M146.220359,107.70101 L162.421986,101.180634 M87.3700599,107.769066 L101.403593,107.769066 M104.98511,97.9887122 C103.11295,97.9887122 101.595264,99.4999395 101.595264,101.378424 L101.595264,124.65794 C101.595264,126.530026 103.105183,128.047651 104.98511,128.047651 L142.818452,128.047651 C144.690612,128.047651 146.208297,126.536424 146.208297,124.65794 L146.208299,101.378424 C146.208299,99.5063378 144.69838,97.9887122 142.818453,97.9887122 L104.98511,97.9887122 Z M46.1348106,97.9887122 C44.2626504,97.9887122 42.7449647,99.4999395 42.7449647,101.378424 L42.7449647,124.65794 C42.7449647,126.530026 44.2548838,128.047651 46.1348105,128.047651 L83.9681522,128.047651 C85.8403123,128.047651 87.357998,126.536424 87.3579981,124.65794 L87.3579991,101.378424 C87.3579992,99.5063378 85.8480802,97.9887122 83.9681534,97.9887122 L46.1348106,97.9887122 Z M46.1348106,97.9887122" id="glasses" stroke="#050505" stroke-width="6.78787879" stroke-linecap="round" stroke-linejoin="round" sketch:type="MSShapeGroup"></path>
                <ellipse d="M69.2622754,119.919192 C72.3874797,119.919192 74.9209581,117.386661 74.9209581,114.262626 C74.9209581,111.138591 72.3874797,108.606061 69.2622754,108.606061 C66.1370712,108.606061 63.6035928,111.138591 63.6035928,114.262626 C63.6035928,117.386661 66.1370712,119.919192 69.2622754,119.919192 Z M69.2622754,119.919192" id="left-eye" fill="#050505" sketch:type="MSShapeGroup" cx="69.2622754" cy="114.262626" rx="5.65868263" ry="5.65656566"></ellipse>
                <ellipse d="M121.095808,119.919192 C124.221013,119.919192 126.754491,117.386661 126.754491,114.262626 C126.754491,111.138591 124.221013,108.606061 121.095808,108.606061 C117.970604,108.606061 115.437126,111.138591 115.437126,114.262626 C115.437126,117.386661 117.970604,119.919192 121.095808,119.919192 Z M121.095808,119.919192" id="right-eye" fill="#050505" sketch:type="MSShapeGroup" cx="121.095808" cy="114.262626" rx="5.65868263" ry="5.65656566"></ellipse>
                <path d="M11.3173653,85.640404 C11.3173653,82.6269329 14.3626684,79.0117922 14.3626684,79.0117922 C14.7404391,78.521665 14.6720457,77.7870634 14.2177331,77.3602457 C14.2177331,77.3602457 7.69580838,71.7637601 7.69580838,66.6343434 C7.69580838,61.8136792 13.48529,56.3307081 13.48529,56.3307081 C13.9238806,55.8844878 14.0659829,55.0646507 13.8126657,54.4938177 C13.8126657,54.4938177 11.5516701,49.9121212 11.6692646,46.397096 C11.8633592,40.5954091 22.7190685,37.3807849 22.7190685,37.3807849 C23.3036666,37.186128 23.6786951,36.5342602 23.5629918,35.918596 C23.5629918,35.918596 23.0874251,33.7430207 23.0874251,32.0161616 C23.0874251,20.3322703 34.0320517,10.8606061 47.5329341,10.8606061 C49.4619729,10.8606061 54.2964941,11.9493448 54.2964941,11.9493448 C54.9031636,12.0802467 55.6673966,11.7668814 56.0200506,11.250355 C56.0200506,11.250355 62.9320731,0 72.343605,0 C76.9847166,0 85.7515333,2.7777601 85.7515333,2.7777601 C86.3436537,2.95798418 87.305048,2.92830178 87.8860744,2.72346295 C87.8860744,2.72346295 95.0520195,0 100.158683,0 C107.681515,0 116.772626,5.73838183 116.772626,5.73838183 C117.307337,6.05716559 118.204535,6.11867476 118.793926,5.87788692 C118.793926,5.87788692 124.902188,3.16767677 129.357485,3.16767677 C137.994775,3.16767677 145.884413,12.681894 145.884413,12.681894 C146.296124,13.1449468 147.138696,13.4699945 147.748522,13.4170116 C147.748522,13.4170116 148.227326,13.3494949 149.049701,13.3494949 C157.987785,13.3494949 165.233533,20.2379781 165.233533,28.7353535 C165.233533,30.3229999 164.755569,32.1944248 164.755569,32.1944248 C164.620458,32.8024557 165.01099,33.2693765 165.346707,33.2606061 C165.346707,33.2606061 165.065822,33.2606061 165.346707,33.2606061 C172.159652,33.2606061 177.682635,40.1490892 177.682635,48.6464646 C177.682635,53.8129544 173.133001,60.2342758 173.133001,60.2342758 C172.788336,60.7537953 172.84044,61.5554127 173.239223,62.032558 C173.239223,62.032558 177.682635,66.8940708 177.682635,70.7070707 C177.682635,74.2408934 173.374894,77.4123949 173.374894,77.4123949 C172.896637,77.8055908 172.840441,78.5093991 173.239225,78.9875048 C173.239225,78.9875048 177.682635,83.9664833 177.682635,86.8848485 C177.682635,91.8833046 172.514339,95.9353535 166.138922,95.9353535 C159.763505,95.9353535 154.686541,91.2071496 154.59521,86.8848485 C154.578151,86.0775434 154.594833,86.8660134 154.594833,86.8660134 C154.645481,86.2446372 154.205656,85.8666274 153.593201,85.9942031 C153.593201,85.9942031 152.833523,86.3170029 150.371533,86.2414141 C144.253318,86.0535709 140.701741,77.9562855 140.701741,77.9562855 C140.423511,77.3977929 139.761897,77.2205406 139.227135,77.543594 C139.227135,77.543594 134.373059,80.7757576 130.489222,80.7757576 C125.333764,80.7757576 119.699592,75.1577702 119.699592,75.1577702 C119.239774,74.7321715 118.367477,74.5103083 117.764676,74.6360136 C117.764676,74.6360136 114.89513,75.5142677 110.216107,74.8599235 C103.42071,73.9096125 97.3308286,66.5135715 97.3308286,66.5135715 C96.9192891,66.0482173 96.2655203,66.065811 95.8634664,66.5354474 C95.8634664,66.5354474 89.5177068,74.8599235 81.0959955,74.8599235 C72.6742842,74.8599242 65.8780797,66.6721046 65.8780797,66.6721046 C65.4626998,66.2123631 64.948425,66.3099236 64.702051,66.8807009 C64.702051,66.8807009 63.4277634,70.9856258 59.0907934,73.1809343 C54.5177228,75.4957532 48.4349808,74.9208597 48.4349808,74.9208597 C47.8113996,74.8872059 47.390431,75.3565021 47.4779724,75.9773941 C47.4779724,75.9773941 47.5329341,76.0734893 47.5329341,76.7030303 C47.5329341,82.2638128 45.6895247,86.6986417 38.1890344,86.6986417 C37.6323921,86.6986417 33.4380816,86.6986438 33.4380816,86.6986438 C32.8137001,86.6986441 32.0445874,87.1342534 31.7123409,87.6554278 C31.7123409,87.6554278 27.2730761,95.4828283 21.842515,95.4828283 C16.029635,95.4828283 11.3173653,91.0762251 11.3173653,85.640404 Z M11.3173653,85.640404" id="hair" stroke="#050505" stroke-width="6.78787879" fill="#333333" sketch:type="MSShapeGroup"></path>
                <path d="M26.7256915,220 L26.7256915,278.580515" id="b-stem" stroke="#1B86AE" stroke-width="6.78787879" stroke-linecap="round" sketch:type="MSShapeGroup"></path>
                <path d="M26.7256915,242.553033 C26.7256915,242.553033 42.4928627,233.046446 55.89285,243.083602 C69.292838,253.120757 67.5288719,267.971714 56.4248769,276.273561 C45.3208821,284.575407 26.7256915,275.307602 26.7256915,275.307602" id="b-loop" stroke="#1B86AE" stroke-width="6.78787879" stroke-linecap="round" sketch:type="MSShapeGroup"></path>
                <path d="M112.555571,246.906345 C112.555571,246.906345 104.618687,238.85616 94.0704212,238.85616 C83.5221553,238.85616 80.3532934,240.173987 77.7407427,243.35243 C75.1281918,246.530873 74.0921291,252.243094 78.9375811,255.207302 C83.7830336,258.17151 89.8598798,256.238633 98.9137729,258.96896 C107.967666,261.699287 110.457485,263.252774 112.075286,267.694983 C113.693087,272.137191 110.683832,275.018431 108.819808,276.669891 C104.946784,280.101254 96.4239525,279.769946 91.2179645,279.769946 C86.0119765,279.769946 78.7112337,278.412371 76.2790419,274.565906 C73.8468503,270.719441 76.2790419,267.325502 76.2790419,267.325502" id="s_bsn" stroke="#1B86AE" stroke-width="6.78787879" stroke-linecap="round" sketch:type="MSShapeGroup"></path>
                <path d="M124.243373,236 L124.243373,278.8023" id="n-stem" stroke="#1B86AE" stroke-width="6.78787879" stroke-linecap="round" sketch:type="MSShapeGroup"></path>
                <path d="M124.264671,242.779798 C124.264671,242.779798 134.000219,237.123231 143.579084,237.123232 C152.754694,237.123234 158.896082,241.429903 161.487156,249.721557 C164.07823,258.01321 161.487156,279.728474 161.487156,279.728474" id="n-shoulder" stroke="#1B86AE" stroke-width="6.78787879" stroke-linecap="round" sketch:type="MSShapeGroup"></path>
                <path d="M45.0431138,292.440099 L45.0431138,322.392304" id="d-stem" stroke="#050505" stroke-width="4.52525253" stroke-linecap="round" sketch:type="MSShapeGroup"></path>
                <path d="M44.9294675,303.862824 C44.9294675,303.862824 34.5984428,299.724746 29.7594191,304.816549 C26.1951682,308.566988 24.6944316,314.378704 29.759419,319.161247 C34.8244069,323.943789 44.9294675,319.161247 44.9294675,319.161247" id="d-loop" stroke="#050505" stroke-width="4.52525253" stroke-linecap="round" sketch:type="MSShapeGroup"></path>
                <path d="M54.9335365,312.19831 C54.9335365,312.19831 69.7210725,312.776991 70.8788685,312.19831 C72.0366644,311.619629 73.5022267,310.627081 71.0891768,307.86919 C68.6761264,305.111298 63.5114805,302.194453 58.5659359,305.098113 C53.6203916,308.001773 54.0541985,316.622657 56.1821967,319.184235 C58.3101949,321.745814 63.6082064,324.860437 71.0891767,319.927731" id="e" stroke="#050505" stroke-width="4.52525253" stroke-linecap="round" sketch:type="MSShapeGroup"></path>
                <path d="M97.0704412,307.197542 C97.0704412,307.197542 93.5233135,303.439935 88.809115,303.439935 C84.0949164,303.439935 82.6786984,304.055061 81.5111052,305.538671 C80.343512,307.022282 79.8804781,309.688591 82.0459926,311.072202 C84.2115073,312.455813 85.3459384,311.613007 89.3791635,312.78309 C93.4123886,313.953173 96.3200726,314.65831 96.8557939,316.90111 C97.3915151,319.143911 95.9448884,320.659012 95.4008657,321.090352 C93.5711131,322.541111 89.860948,322.537374 87.5343038,322.537374 C85.2076596,322.537374 82.6474696,322.27178 81.5111052,321.090352 C80.3747408,319.908924 80.3747408,318.221227 80.3747408,318.221227" id="s_design" stroke="#050505" stroke-width="4.52525253" stroke-linecap="round" sketch:type="MSShapeGroup"></path>
                <path d="M105.704192,303.691417 L105.704192,322.392304" id="i-stem" stroke="#050505" stroke-width="4.52525253" stroke-linecap="round" sketch:type="MSShapeGroup"></path>
                <path d="M105.939875,296.177778 L105.939875,296.177778" id="i-dot" stroke="#000000" stroke-width="4.52525253" stroke-linecap="round" sketch:type="MSShapeGroup"></path>
                <path d="M134.676646,308.39596 C134.676646,308.39596 128.112575,300.250505 120.681435,304.990475 C113.250296,309.730446 116.654487,319.399237 120.681435,321.737372 C124.708383,324.075508 130.655306,323.51198 132.887832,320.520354 C135.120359,317.528728 135.129341,312.242424 135.129341,312.242424 C135.129341,312.242424 134.867044,327.816524 134.441317,330.388474 C134.01559,332.960423 129.914372,335.999999 126.519162,335.999999 C123.123953,335.999999 121.539521,335.999999 119.049701,333.895677 C117.31235,332.42732 117.012575,330.622287 117.012575,330.622287" id="g" stroke="#050505" stroke-width="4.52525253" stroke-linecap="round" stroke-linejoin="round" sketch:type="MSShapeGroup"></path>
                <path d="M143.730539,302.836737 L143.730539,322.355441" id="n-stem_design" stroke="#050505" stroke-width="4.52525253" stroke-linecap="round" sketch:type="MSShapeGroup"></path>
                <path d="M144.909928,305.964714 C144.909928,305.964714 149.278584,303.426429 153.576931,303.42643 C157.694325,303.426431 160.450165,305.358973 161.612864,309.079706 C162.775563,312.80044 161.612864,322.544782 161.612864,322.544782" id="n-shoulder_design" stroke="#050505" stroke-width="4.52525253" stroke-linecap="round" sketch:type="MSShapeGroup"></path>
            </g>
        </g>
    </g>
</svg>