<?xml version="1.0" encoding="UTF-8" standalone="no"?>
<svg viewBox="0 0 866 1510" version="1.1" xmlns="http://www.w3.org/2000/svg" xmlns:xlink="http://www.w3.org/1999/xlink" xmlns:sketch="http://www.bohemiancoding.com/sketch/ns">
    <title>BSN Design logo</title>
    <description>Created with Sketch (http://www.bohemiancoding.com/sketch)</description>
    <defs></defs>
    <g id="Page 1" stroke="none" stroke-width="1" fill="none" fill-rule="evenodd">
        <g id="logo" transform="translate(-293.000000, -95.000000)">
            <g id="head" transform="translate(309.000000, 110.000000)">
                <path d="M116.021446,654.614822 C114.311729,654.614822 77.8482903,673.483959 39.0406152,651.012835 C0.23294135,628.541707 -18.0580686,520.090924 24.2424233,472.951055 C66.5429122,425.811181 116.021446,472.951055 116.021446,472.951055" id="left-ear" stroke="#050505" stroke-width="30" stroke-linecap="round"></path>
                <path d="M719.444296,476.118521 C727.866862,469.390488 769.813766,422.06342 810.52164,479.398211 C849.549024,534.366131 837.358917,617.084333 803.303005,648.179794 C769.247093,679.275256 728.285168,655.167749 719.444296,649.320141" id="right-ear" stroke="#050505" stroke-width="30" stroke-linecap="round"></path>
                <path d="M116.073822,419.557287 L116.073822,664.363161 C116.073822,680.930356 123.562444,705.504331 132.805421,719.258548 L269.790459,923.102173 C279.031066,936.852863 299.948578,948 316.51678,948 L535.876942,948 C552.44257,948 573.026103,936.631215 581.850338,922.609035 L702.740994,730.507335 C711.565772,716.484292 718.71967,691.692332 718.719671,675.121553 L718.719696,424.836862" id="outline" stroke="#050505" stroke-width="30" stroke-linecap="round" stroke-linejoin="round"></path>
                <path d="M363.441681,634.549833 C375.428009,648.971708 378.476838,663.393585 417.396759,663.393583 C447.682238,663.393582 466.095978,648.971708 471.351837,634.549833" id="nose" stroke="#050505" stroke-width="30" stroke-linecap="round"></path>
                <path d="M459.820312,820.523438 C473.835938,827.488281 503.179689,817.054689 519.367188,807.574219 C535.554688,798.09375 548.609375,776.628906 554.355469,758" id="mouth" stroke="#050505" stroke-width="30" stroke-linecap="round"></path>
                <path d="M188,476 L118.753142,449.089931 M646,476 L717.578613,447.182268 M386,476.300781 L448,476.300781 M463.843379,433.075112 C455.560998,433.075112 448.846802,439.799926 448.846802,448.072516 L448.846802,550.927484 C448.846802,559.210322 455.560187,565.924888 463.843379,565.924888 L630.950133,565.924888 C639.232514,565.924888 645.946711,559.200074 645.946711,550.927484 L645.946716,448.072516 C645.946716,439.789678 639.233331,433.075112 630.950139,433.075112 L463.843379,433.075112 Z M203.843379,433.075112 C195.560998,433.075112 188.846802,439.799926 188.846802,448.072516 L188.846802,550.927484 C188.846802,559.210322 195.560187,565.924888 203.843379,565.924888 L370.950133,565.924888 C379.232514,565.924888 385.946711,559.200074 385.946711,550.927484 L385.946716,448.072516 C385.946716,439.789678 379.233331,433.075112 370.950139,433.075112 L203.843379,433.075112 Z M203.843379,433.075112" id="glasses" stroke="#050505" stroke-width="30" stroke-linecap="round" stroke-linejoin="round"></path>
                <path d="M306,530 C319.807119,530 331,518.807119 331,505 C331,491.192881 319.807119,480 306,480 C292.192881,480 281,491.192881 281,505 C281,518.807119 292.192881,530 306,530 Z M306,530" id="left-eye" fill="#050505"></path>
                <path d="M535,530 C548.807119,530 560,518.807119 560,505 C560,491.192881 548.807119,480 535,480 C521.192881,480 510,491.192881 510,505 C510,518.807119 521.192881,530 535,530 Z M535,530" id="right-eye" fill="#050505"></path>
                <path d="M50,378.5 C50,365.181534 63.4349162,349.230022 63.4349162,349.230022 C65.1145073,347.04941 64.8096964,343.780681 62.7980525,341.889577 C62.7980525,341.889577 34,317.17019 34,294.5 C34,273.194386 59.5923259,248.946328 59.5923259,248.946328 C61.5220297,246.982635 62.1433635,243.36609 61.024211,240.843212 C61.024211,240.843212 51.0351562,220.59375 51.5546875,205.058594 C52.4121955,179.41721 100.30292,165.23438 100.30292,165.23438 C102.924154,164.360446 104.608977,161.451644 104.101048,158.747366 C104.101048,158.747366 102,149.1321 102,141.5 C102,89.8613733 150.353244,48 210,48 C218.522473,48 239.849243,52.805069 239.849243,52.805069 C242.547227,53.3873461 245.958869,51.9740718 247.51153,49.7002694 C247.51153,49.7002694 278.033233,0 319.613281,0 C340.117663,0 378.805919,12.2637662 378.805919,12.2637662 C381.445896,13.0674396 385.685145,12.951959 388.299547,12.0298593 C388.299547,12.0298593 419.938816,0 442.5,0 C475.735795,0 515.900226,25.3615983 515.900226,25.3615983 C518.262574,26.7705086 522.239043,27.0370868 524.793935,25.9927679 C524.793935,25.9927679 551.816545,14 571.5,14 C609.659455,14 644.488996,56.02039 644.488996,56.02039 C646.322729,58.0829632 650.035451,59.5345996 652.778611,59.2962327 C652.778611,59.2962327 654.866757,59 658.5,59 C697.988362,59 730,89.4446352 730,127 C730,134.01683 727.890589,142.277126 727.890589,142.277126 C727.292438,144.970334 729.036039,147.037971 730.5,147 C730.5,147 729.259056,147 730.5,147 C760.59952,147 785,177.444635 785,215 C785,237.83404 764.899765,266.213987 764.899765,266.213987 C763.377042,268.510077 763.607234,272.05294 765.38115,274.176508 C765.38115,274.176508 785,295.647902 785,312.5 C785,328.118234 765.994232,342.112678 765.994232,342.112678 C763.867056,343.862868 763.607241,346.983505 765.369062,349.096561 C765.369062,349.096561 785,371.101868 785,384 C785,406.091391 762.166524,424 734,424 C705.833476,424 683.403503,403.103027 683,384 C682.924635,380.432 682.99795,383.896063 682.99795,383.896063 C683.221925,381.161231 681.239428,379.509058 678.535179,380.070665 C678.535179,380.070665 675.216888,381.490325 664.339844,381.15625 C637.309631,380.32605 621.618802,344.53894 621.618802,344.53894 C620.389584,342.070603 617.499501,341.266876 615.135372,342.696415 C615.135372,342.696415 593.658752,357 576.5,357 C553.723243,357 528.800029,332.142457 528.800029,332.142457 C526.785959,330.276952 522.985713,329.300015 520.283094,329.864524 C520.283094,329.864524 507.605469,333.746094 486.933594,330.854126 C456.911601,326.654091 430.006571,293.966231 430.006571,293.966231 C428.188394,291.909532 425.30005,291.98729 423.507757,294.081204 C423.507757,294.081204 395.488281,330.854126 358.28125,330.854126 C321.074219,330.854129 291.073904,294.693621 291.073904,294.693621 C289.224818,292.646965 286.932949,293.087159 285.839625,295.618035 C285.839625,295.618035 280.223187,313.731114 261.0625,323.433594 C240.858722,333.664267 213.985233,331.123443 213.985233,331.123443 C211.230257,330.974704 209.373277,333.066894 209.75718,335.792947 C209.75718,335.792947 210,336.217654 210,339 C210,363.576673 201.855837,383.177032 168.71875,383.177032 C166.25951,383.177032 147.729091,383.177042 147.729091,383.177042 C144.97058,383.177043 141.58087,385.089039 140.092673,387.424244 C140.092673,387.424244 120.492162,422 96.5,422 C70.8187579,422 50,402.524388 50,378.5 Z M50,378.5" id="hair" stroke="#050505" stroke-width="30" fill="#333333"></path>
            </g>
            <g id="bsn" transform="translate(426.000000, 1079.000000)" stroke="#1B86AE" stroke-width="30" stroke-linecap="round">
                <path d="M1.07382206,0 L1.07382206,262.226385" id="b-stem"></path>
                <path d="M1.07382212,102.99778 C1.07382212,102.99778 70.7330178,60.9820584 129.93402,105.342705 C189.135025,149.703345 181.341841,215.339274 132.284509,252.030469 C83.2271777,288.721664 1.07382206,247.761279 1.07382206,247.761279" id="b-loop"></path>
                <path d="M380.269321,122.237863 C380.269321,122.237863 345.204253,86.6589198 298.602125,86.6589198 C251.999998,86.6589198 238,92.4832441 226.457779,106.530829 C214.915556,120.578413 210.338243,145.82439 231.745398,158.92513 C253.152556,172.025869 279.999998,163.483245 320.000002,175.550315 C360.000006,187.617385 371,194.483244 378.147428,214.116218 C385.294856,233.749193 372,246.483244 363.764761,253.782107 C346.653781,268.947508 309.000002,267.483245 286.000002,267.483245 C263.000002,267.483245 230.745398,261.483245 220,244.483245 C209.254603,227.483245 220,212.483245 220,212.483245" id="s_bsn"></path>
                <path d="M431.905908,70.9635177 L431.905908,263.206593" id="n-stem"></path>
                <path d="M432,104 C432,104 475.011548,78.999992 517.330873,79 C557.86862,79.000008 585.001208,98.0339484 596.448547,134.680093 C607.895884,171.326239 596.448547,267.299952 596.448547,267.299952" id="n-shoulder"></path>
            </g>
            <g id="design" transform="translate(426.000000, 1402.000000)" stroke-width="20" stroke-linecap="round">
                <path d="M82,0.480796293 L82,132.858844" id="d-stem" stroke="#050505"></path>
                <path d="M81.4979122,50.9651582 C81.4979122,50.9651582 35.8555543,32.6763323 14.4767987,55.1802819 C-1.270024,71.7558828 -7.90026255,97.4415926 14.4767983,118.578724 C36.8538611,139.715854 81.4979119,118.578726 81.4979119,118.578726" id="d-loop" stroke="#050505"></path>
                <path d="M125.695783,87.8050302 C125.695783,87.8050302 191.026961,90.3625931 196.142091,87.8050302 C201.257221,85.247467 207.73206,80.8607596 197.071231,68.6718649 C186.4104,56.4829703 163.593049,43.5915549 141.743685,56.4246963 C119.894323,69.257838 121.810877,107.359063 131.212351,118.680325 C140.613824,130.001588 164.020383,143.767108 197.071231,121.966309" id="e" stroke="#050505"></path>
                <path d="M311.856182,65.7034201 C311.856182,65.7034201 296.18501,49.0961408 275.35773,49.0961408 C254.530451,49.0961408 248.273615,51.8147764 243.1152,58.3718055 C237.956786,64.9288343 235.911107,76.7129673 245.478327,82.828035 C255.045548,88.9431026 260.057453,85.218201 277.876199,90.3895496 C295.694945,95.5608981 308.541062,98.6773505 310.907872,108.589728 C313.274683,118.502106 306.883502,125.198313 304.480015,127.104683 C296.396188,133.516519 280.004717,133.5 269.725628,133.5 C259.446539,133.5 248.135646,132.326169 243.1152,127.104681 C238.094754,121.883193 238.094754,114.424172 238.094754,114.424172" id="s_design" stroke="#050505"></path>
                <path d="M350,50.2076014 L350,132.858844" id="i-stem" stroke="#050505"></path>
                <path d="M351.041248,17 L351.041248,17" id="i-dot" stroke="#000000"></path>
                <path d="M477.999996,70.9999996 C477.999996,70.9999996 449,35.0000002 416.169303,55.9489732 C383.338608,76.8979521 398.378288,119.630556 416.169303,129.964279 C433.960318,140.298004 460.233759,137.807411 470.097038,124.585493 C479.960316,111.363574 479.999997,87.9999982 479.999997,87.9999982 C479.999997,87.9999982 478.841175,156.83196 476.960316,168.199058 C475.079456,179.566155 456.96032,192.999997 441.96032,192.999997 C426.96032,192.999997 419.96032,192.999997 408.960319,183.699645 C401.284722,177.210031 399.960319,169.23243 399.960319,169.23243" id="g" stroke="#050505" stroke-linejoin="round"></path>
                <path d="M518,46.4302229 L518,132.695921" id="n-stem_design" stroke="#050505"></path>
                <path d="M523.21053,60.2547631 C523.21053,60.2547631 542.511205,49.0364493 561.501258,49.0364529 C579.691859,49.0364565 591.86713,57.5776024 597.003922,74.0219153 C602.140713,90.4662285 597.003922,133.532744 597.003922,133.532744" id="n-shoulder_design" stroke="#050505"></path>
            </g>
        </g>
    </g>
</svg>