<?xml version="1.0" encoding="UTF-8" standalone="no"?>
<svg viewBox="0 0 80 80" version="1.1" xmlns="http://www.w3.org/2000/svg" xmlns:xlink="http://www.w3.org/1999/xlink" xmlns:sketch="http://www.bohemiancoding.com/sketch/ns">
    <title>twitter</title>
    <description>Created with Sketch (http://www.bohemiancoding.com/sketch)</description>
    <defs></defs>
    <g id="Page-1" stroke="none" stroke-width="1" fill="none" fill-rule="evenodd" sketch:type="MSPage">
        <g id="twitter" sketch:type="MSArtboardGroup" fill="#000000">
            <g sketch:type="MSLayerGroup" transform="translate(15.000000, 20.000000)" id="Shape">
                <path d="M1.89041534,6.57284345 C1.52412141,6.78690096 1.37124601,7.29728435 1.60335463,7.66549521 C4.09936102,11.6146965 7.67204473,13.7458466 12.1822684,14.863099 C14.4822684,15.4327476 17.229393,15.701278 19.5870607,15.422524 C20.5768371,15.3055911 23.1071885,14.9926518 23.4415335,13.8083067 C23.4982428,13.6017572 23.4690096,13.3771565 23.3610224,13.192492 C23.256869,13.0140575 23.0833866,12.8805112 22.8837061,12.8255591 C22.6990415,12.7750799 22.428115,12.7830671 22.2683706,12.9060703 C20.1837061,14.5097444 16.5003195,13.8974441 14.1011182,13.6049521 C10.9819489,13.1543131 7.90495208,11.8851438 5.41038339,9.96517572 C5.46405751,10.0063898 5.51773163,10.0482428 5.57204473,10.0899361 C4.46022364,9.21741214 3.7284345,8.04105431 2.98306709,6.85942492 C2.82667732,6.61166134 2.55958466,6.46533546 2.2841853,6.46533546 C2.15095847,6.46533546 2.01597444,6.49952077 1.89041534,6.57284345 C1.52412141,6.78690096 2.01597444,6.49952077 1.89041534,6.57284345 C1.89041534,6.57284345 2.01597444,6.49952077 1.89041534,6.57284345 L1.89041534,6.57284345 L1.89041534,6.57284345 Z M4.50543131,9.08881789 C4.51757188,9.10463259 4.52971246,9.12044728 4.54185304,9.13642173 C4.52955272,9.12044728 4.51757188,9.10463259 4.50543131,9.08881789 C4.50543131,9.08881789 4.51757188,9.10463259 4.50543131,9.08881789 L4.50543131,9.08881789 L4.50543131,9.08881789 Z M4.50543131,9.08881789" sketch:type="MSShapeGroup"></path>
                <path d="M1.57428115,6.79520767 C0.229392971,11.0011182 0.646166134,15.5587859 4.54584665,18.2182109 C4.90591054,18.4634185 5.43067093,18.2875399 5.6384984,17.9317891 C5.74648562,17.7471246 5.77571885,17.522524 5.71900958,17.3159744 C5.55798722,16.7308307 4.51102236,16.2886581 4.11900958,15.8615016 C3.43674121,15.1178914 3.03466454,14.2595847 2.74936102,13.299361 C2.12220447,11.1947284 2.4686901,9.25255591 3.114377,7.21964856 C3.24664537,6.80463259 2.96405751,6.34920128 2.55654952,6.23753994 C2.485623,6.21789137 2.41485623,6.20846645 2.34584665,6.20846645 C1.99472843,6.20830671 1.68434505,6.44840256 1.57428115,6.79520767 C1.44201278,7.20894569 1.68434505,6.44840256 1.57428115,6.79520767 C1.57428115,6.79520767 1.68434505,6.44840256 1.57428115,6.79520767 L1.57428115,6.79520767 L1.57428115,6.79520767 Z M1.57428115,6.79520767" sketch:type="MSShapeGroup"></path>
                <path d="M4.83881789,16.8095847 C3.55910543,17.2353035 2.16102236,17.0111821 0.938178914,17.4118211 C-1.11214058,18.0845048 1.39361022,21.4605431 2.0600639,22.2977636 C3.41709265,24.0060703 5.33194888,24.8186901 7.46054313,25.1202875 C7.42891374,25.1161342 7.39744409,25.1118211 7.36597444,25.1076677 C7.73051118,25.222524 8.09776358,25.2242812 8.46741214,25.1132588 C8.64648562,25.0084665 8.78003195,24.835623 8.83498403,24.6359425 C8.89169329,24.429393 8.86246006,24.2047923 8.75447284,24.0201278 C8.65782748,23.8554313 8.47172524,23.6888179 8.27715655,23.6531949 C8.04376997,23.6108626 7.81134185,23.5714058 7.57683706,23.5388179 C7.61565495,23.5440895 7.65447284,23.549361 7.69313099,23.5546326 C4.96964856,23.1551118 2.83146965,21.5837061 1.88290735,18.9338658 C2.84376997,18.9162939 5.17651757,18.9476038 5.74121406,17.9829073 C5.84920128,17.7982428 5.8784345,17.5736422 5.82172524,17.3675719 C5.70958466,16.9607029 5.2428115,16.6744409 4.83881789,16.8095847 C4.53498403,16.9105431 4.90942492,16.7857827 4.83881789,16.8095847 C4.83881789,16.8095847 4.90942492,16.7857827 4.83881789,16.8095847 L4.83881789,16.8095847 L4.83881789,16.8095847 Z M4.83881789,16.8095847" sketch:type="MSShapeGroup"></path>
                <path d="M7.86549521,23.6314696 C6.61884984,24.4833866 5.15591054,24.2597444 3.99728435,24.935623 C3.85191693,25.0210863 3.77635783,25.1359425 3.67779553,25.2662939 C3.57428115,25.4035144 3.56789137,25.6001597 3.56980831,25.7629393 C3.58226837,27.2119808 6.0870607,29.565655 7.16613419,30.3605431 C8.87380192,31.6186901 10.8145367,32.1870607 12.9167732,32.2699681 C13.9453674,32.3113419 13.9423323,30.713738 12.9167732,30.672524 C9.57859425,30.5426518 7.56757188,28.8416933 5.63642173,26.2752396 C6.53162939,26.1252396 8.7456869,25.6001597 9.03929712,24.5337061 C9.09600639,24.3271565 9.06677316,24.1025559 8.95878594,23.9178914 C8.74904153,23.5597444 8.22476038,23.3857827 7.86549521,23.6314696 C7.52428115,23.8646965 7.98083067,23.5523962 7.86549521,23.6314696 C7.86549521,23.6314696 7.98083067,23.5523962 7.86549521,23.6314696 L7.86549521,23.6314696 L7.86549521,23.6314696 Z M7.86549521,23.6314696" sketch:type="MSShapeGroup"></path>
                <path d="M13.1127796,30.701278 C12.4215655,30.9926518 11.8753994,31.9378594 11.2861022,32.4194888 C10.3527157,33.1822684 9.26773163,33.7452077 8.135623,34.1527157 C6.97571885,34.5699681 5.8600639,34.965655 4.64520767,35.1944089 C3.79249201,35.3551118 2.0186901,35.115016 1.37076677,35.7587859 C0.906230032,36.2231629 1.24536741,37.2073482 1.93546326,37.1222045 C6.37827476,36.5638978 11.1153355,35.6520767 14.0142173,31.8742812 C14.1372204,31.7145367 14.1458466,31.44377 14.0947284,31.2589457 C14.0397764,31.0592652 13.90623,30.8857827 13.7277955,30.7816294 C13.5284345,30.6722045 13.3233227,30.6453674 13.1127796,30.701278 C13.0492013,30.728115 13.1817891,30.6822684 13.1127796,30.701278 C13.1127796,30.701278 13.1817891,30.6822684 13.1127796,30.701278 L13.1127796,30.701278 L13.1127796,30.701278 Z M13.1127796,30.701278" sketch:type="MSShapeGroup"></path>
                <path d="M45.0337061,8.79057508 C44.615655,8.90543131 44.3584665,9.35399361 44.4758786,9.77332268 C47.5298722,20.634345 41.0589457,30.9353035 31.9509585,36.5373802 C27.0702875,39.5408946 20.620607,39.208147 15.1428115,38.9503195 C12.5998403,38.8306709 10.086901,38.6777955 7.61805112,38.000639 C6.25750799,37.6273163 4.89472843,37.2169329 3.63434505,36.5723642 C3.1028754,36.3004792 2.5186901,35.4734824 1.88466454,35.4734824 C1.23482428,35.4734824 0.763099042,36.3675719 1.31996805,36.836901 C5.5014377,40.3611821 12.0964856,40.5586262 17.2896166,40.6351438 C23.292492,40.7238019 29.2495208,40.4436102 34.3031949,36.8477636 C39.0464856,33.4726837 42.3191693,29.8739617 44.7878594,24.5964856 C47.0480831,19.7642173 47.4538339,14.4440895 46.0159744,9.34840256 C45.9178914,8.99840256 45.5915335,8.76246006 45.2410543,8.76246006 C45.1723642,8.76261981 45.1027157,8.7715655 45.0337061,8.79057508 C44.615655,8.90543131 45.1027157,8.7715655 45.0337061,8.79057508 C45.0337061,8.79057508 45.1027157,8.7715655 45.0337061,8.79057508 L45.0337061,8.79057508 L45.0337061,8.79057508 Z M45.0337061,8.79057508" sketch:type="MSShapeGroup"></path>
                <path d="M48.1682109,4.24632588 C46.6576677,4.8172524 45.3178914,5.43674121 43.7071885,5.65846645 C43.7782748,5.64904153 43.8488818,5.63977636 43.9193291,5.63035144 C43.7445687,5.65351438 43.5710863,5.67971246 43.3969649,5.71277955 C43.2015974,5.74952077 43.0175719,5.91309904 42.9196486,6.07971246 C42.8116613,6.264377 42.7824281,6.48897764 42.8391374,6.69504792 C42.8940895,6.89472843 43.0276358,7.06821086 43.2067093,7.17236422 C43.4974441,7.27412141 43.7859425,7.28578275 44.0722045,7.20734824 C44.0391374,7.21166134 44.0063898,7.21613419 43.9736422,7.22044728 C45.3177316,7.03338658 46.2956869,6.61421725 47.5536741,6.16789137 C46.9554313,7.03226837 45.9341853,8.11900958 44.9091054,8.42971246 C44.4929712,8.55638978 44.2333866,8.98386581 44.351278,9.41246006 C44.4648562,9.82300319 44.9172524,10.0969649 45.3340256,9.97028754 C46.7183706,9.54904153 50.4341853,6.58626198 49.822524,4.74361022 C49.7714058,4.5913738 49.7214058,4.48530351 49.6091054,4.36789137 C49.2071885,3.95415335 48.6458466,4.06549521 48.1682109,4.24632588 C47.8231629,4.37667732 48.3813099,4.16565495 48.1682109,4.24632588 C48.1682109,4.24632588 48.3813099,4.16565495 48.1682109,4.24632588 L48.1682109,4.24632588 L48.1682109,4.24632588 Z M48.9273163,5.67523962 C48.934984,5.67619808 48.942492,5.67747604 48.9501597,5.67891374 C48.941853,5.67779553 48.9337061,5.67667732 48.9253994,5.67555911 C48.9260383,5.67555911 48.9266773,5.67539936 48.9273163,5.67523962 C48.934984,5.67619808 48.9266773,5.67539936 48.9273163,5.67523962 C48.9273163,5.67523962 48.9266773,5.67539936 48.9273163,5.67523962 L48.9273163,5.67523962 L48.9273163,5.67523962 Z M48.9273163,5.67523962" sketch:type="MSShapeGroup"></path>
                <path d="M47.4464856,0.109744409 C46.2041534,0.313738019 45.0253994,1.52827476 43.8889776,2.05351438 C43.1084665,2.41166134 40.7977636,3.11309904 40.3782748,3.82316294 C40.2702875,4.0071885 40.2410543,4.23194888 40.2977636,4.4384984 C40.3527157,4.63817891 40.486262,4.81102236 40.6646965,4.9158147 C40.8325879,5.01373802 41.0915335,5.07124601 41.2800319,4.99632588 C43.1242812,4.26182109 44.793131,3.34744409 46.5289137,2.38354633 C45.8416933,3.61964856 44.7009585,5.08258786 43.4035144,5.72779553 C43.0146965,5.92252396 42.9079872,6.46341853 43.1170927,6.82044728 C43.221885,6.99888179 43.3947284,7.13242812 43.5944089,7.18738019 C45.6111821,7.74217252 48.6164537,2.59057508 48.6289137,0.9985623 C48.6301917,0.760223642 48.5464856,0.523642173 48.3761981,0.352715655 C48.1193291,0.0955271565 47.7806709,0.0557507987 47.4464856,0.109744409 C47.1044728,0.165814696 47.5380192,0.0948881789 47.4464856,0.109744409 C47.4464856,0.109744409 47.5380192,0.0948881789 47.4464856,0.109744409 L47.4464856,0.109744409 L47.4464856,0.109744409 Z M47.8714058,1.65031949 C47.851278,1.65303514 47.8313099,1.65559105 47.8111821,1.65830671 C47.8309904,1.65479233 47.8511182,1.65207668 47.8714058,1.65031949 C47.8714058,1.65031949 47.8511182,1.65207668 47.8714058,1.65031949 L47.8714058,1.65031949 L47.8714058,1.65031949 Z M47.8714058,1.65031949" sketch:type="MSShapeGroup"></path>
                <path d="M32.121885,0.798242812 C28.6284345,0.824760383 25.164377,2.89057508 23.3017572,5.77476038 C22.2536741,7.39760383 21.9460064,9.43833866 21.9306709,11.3341853 C21.9247604,12.0763578 21.5479233,13.7654952 22.3276358,14.2266773 C23.3097444,14.8076677 23.5266773,13.5504792 23.5266773,12.9257188 C23.5271565,8.66022364 24.5963259,4.40367412 29.242492,3.04952077 C32.5065495,2.0942492 37.8934505,1.76693291 40.3060703,4.81230032 C40.7361022,5.35734824 41.6694888,4.90734824 41.6694888,4.24760383 C41.5142173,3.0784345 39.8242812,2.21996805 38.8383387,1.81214058 C38.8717252,1.82619808 38.9051118,1.84025559 38.9384984,1.8543131 C36.7876997,0.955111821 34.4285942,0.778594249 32.121885,0.798242812 C31.7105431,0.8014377 32.2498403,0.797124601 32.121885,0.798242812 C32.121885,0.798242812 32.2498403,0.797124601 32.121885,0.798242812 L32.121885,0.798242812 L32.121885,0.798242812 Z M32.121885,0.798242812" sketch:type="MSShapeGroup"></path>
            </g>
        </g>
    </g>
</svg>